<?xml version="1.0" encoding="UTF-8" standalone="no"?>
<svg
   version="1.1"
   width="150"
   height="150"
   id="svg22"
   xmlns="http://www.w3.org/2000/svg"
   xmlns:svg="http://www.w3.org/2000/svg">
  <defs
     id="defs22" />
  <g
     id="g22"
     transform="matrix(0.25,0,0,0.25,-0.24995198,-0.71724442)">
    <path
       d="M 0,0 C 15.791009,6.9158478 41.059366,19.118732 49,35 54.168152,33.648694 59.308812,32.226399 64.410156,30.640625 83.650215,24.671058 102.97245,20.302063 123,18 c 0.8109,-0.09571 1.6218,-0.191426 2.45728,-0.290039 8.5196,-0.896377 17.04803,-0.95336 25.60522,-0.959961 0.79129,-6.75e-4 1.58259,-0.0013 2.39786,-0.002 14.34576,0.0193 28.36281,0.93969 42.53964,3.252045 1.02561,0.166289 2.05122,0.332578 3.10791,0.503906 14.47403,2.438303 28.34433,6.215639 42.30225,10.726563 C 245.90774,32.683136 250.3987,33.922864 255,35 c 1.14469,-1.454063 1.14469,-1.454063 2.3125,-2.9375 C 261.63827,27.025923 266.76824,23.053562 272,19 c 1.31871,-1.024805 1.31871,-1.024805 2.66406,-2.070313 C 291.79038,4.0470627 313.94505,-8.1510991 336,-6 c 3.24087,1.1363416 5.47197,2.7023279 8,5 0.55172,0.44988281 1.10344,0.89976563 1.67187,1.36328125 12.43339,11.91019475 12.0747,42.39296575 12.45313,58.35937475 0.2775,17.433181 -1.25264,34.366741 -4.80371,51.439454 -1.69538,8.18523 -1.61827,11.9446 3.05371,19.15039 6.17141,9.92471 10.39229,20.55753 14.63867,31.41357 0.99631,2.4815 0.99631,2.4815 2.98633,5.27393 0.93795,-0.33846 1.87591,-0.67692 2.84229,-1.02563 3.49509,-1.25705 6.99647,-2.4957 10.5,-3.72901 1.51283,-0.5354 3.02394,-1.07571 4.5332,-1.62109 2.17511,-0.78502 4.35592,-1.55191 6.53857,-2.31568 0.669,-0.24577 1.33799,-0.49154 2.02725,-0.74476 4.23872,-1.45859 7.21437,-1.67196 11.55869,-0.56383 0.33,2.31 0.66,4.62 1,7 -3.42283,2.96265 -7.15968,4.29707 -11.39063,5.69922 -0.70461,0.23991 -1.40922,0.47982 -2.13519,0.727 -2.23913,0.76065 -4.48153,1.51108 -6.72418,2.26128 -1.52366,0.5156 -3.04711,1.03187 -4.57031,1.54883 -3.72401,1.26226 -7.45098,2.51538 -11.17969,3.76367 0.2272,1.14215 0.2272,1.14215 0.45898,2.30737 0.68523,3.4591 1.3632,6.91958 2.04102,10.38013 0.23848,1.19818 0.47695,2.39637 0.72266,3.63086 0.22558,1.15693 0.45117,2.31387 0.68359,3.50586 0.20947,1.06307 0.41895,2.12615 0.63477,3.22143 0.42255,2.71985 0.49297,5.21071 0.45898,7.95435 0.66985,-0.004 1.33971,-0.009 2.02986,-0.0135 6.95886,-0.0442 13.91767,-0.0744 20.87663,-0.0964 2.59865,-0.0101 5.19729,-0.0237 7.7959,-0.041 3.73074,-0.0242 7.46134,-0.0356 11.19214,-0.0444 1.1657,-0.0103 2.3314,-0.0206 3.53243,-0.0313 1.08089,-1.5e-4 2.16178,-3.1e-4 3.27543,-4.6e-4 0.95264,-0.004 1.90529,-0.009 2.8868,-0.0135 C 436,208 436,208 439,210 c 0.375,3.5 0.375,3.5 0,7 -3.32576,2.21717 -4.33606,2.24543 -8.20581,2.22705 -1.06087,-1.5e-4 -2.12175,-3e-4 -3.21477,-4.6e-4 -1.14382,-0.0103 -2.28765,-0.0206 -3.46614,-0.0313 -1.17214,-0.003 -2.34429,-0.006 -3.55195,-0.009 -3.74972,-0.0112 -7.49919,-0.0363 -11.24883,-0.0617 -2.53971,-0.01 -5.07942,-0.0191 -7.61914,-0.0273 -6.23129,-0.02 -12.46206,-0.0591 -18.69336,-0.0973 0,10.56 0,21.12 0,32 8.37375,2.83485 8.37375,2.83485 16.75293,5.65356 1.04575,0.35796 2.0915,0.71592 3.16894,1.08472 1.06832,0.36134 2.13663,0.72268 3.23731,1.09497 2.68563,1.10301 4.62738,2.31054 6.84082,4.16675 -0.33,2.31 -0.66,4.62 -1,7 -4.71421,1.10941 -7.54112,0.82731 -12.05469,-0.87109 -1.10859,-0.40928 -2.21719,-0.81856 -3.35937,-1.24024 -1.71317,-0.65645 -1.71317,-0.65645 -3.46094,-1.32617 -1.16531,-0.43377 -2.33063,-0.86754 -3.53125,-1.31445 C 386.72421,264.17785 383.8602,263.09487 381,262 c -0.25245,1.44923 -0.25245,1.44923 -0.51001,2.92773 C 376.55063,287.00944 368.00375,307.71331 355,326 c -0.39494,0.5572 -0.78987,1.11439 -1.19678,1.68848 C 337.78723,349.90979 317.24822,366.59486 293,379 c -0.78939,0.4096 -1.57878,0.8192 -2.39209,1.24121 -41.58379,21.38881 -88.36495,32.17 -135.00977,32.07446 -3.19843,-0.003 -6.39592,0.0204 -9.59423,0.0457 -19.38962,0.0604 -38.41189,-2.008 -57.37891,-6.04883 -1.201326,-0.25346 -2.402651,-0.50692 -3.640381,-0.76807 C 60.526095,400.19689 37.513595,391.6317 14.9375,380.9375 13.403073,380.21385 13.403073,380.21385 11.837646,379.47559 -3.7161848,371.96151 -17.483885,361.86642 -30,350 c -0.957773,-0.89332 -1.915547,-1.78664 -2.902344,-2.70703 C -40.65573,339.91477 -47.041939,331.87881 -53,323 c -0.597239,-0.88679 -0.597239,-0.88679 -1.206543,-1.7915 C -65.819214,303.66533 -74.375383,282.94226 -77,262 c -0.73114,0.27787 -1.46228,0.55575 -2.215576,0.84204 -3.319228,1.25317 -6.645337,2.48697 -9.971924,3.72046 -1.150488,0.43764 -2.300977,0.87527 -3.486328,1.32617 -1.111817,0.40928 -2.223633,0.81856 -3.369141,1.24024 -1.021179,0.38228 -2.042358,0.76457 -3.094482,1.15844 -3.108469,0.77387 -4.839209,0.70842 -7.862549,-0.28735 -2,-2 -2,-2 -2.375,-4.4375 C -109,263 -109,263 -107.35645,261.4812 c 2.73636,-1.72 5.3725,-2.70722 8.434575,-3.74292 1.568628,-0.53693 1.568628,-0.53693 3.168945,-1.08472 1.981451,-0.66382 1.981451,-0.66382 4.00293,-1.34106 4.2075,-1.42313 8.415,-2.84625 12.75,-4.3125 0,-10.56 0,-21.12 0,-32 -3.791133,0.0348 -7.582266,0.0696 -11.488281,0.10547 -3.663648,0.0234 -7.327288,0.0416 -10.990969,0.0593 -2.55017,0.0151 -5.10031,0.0356 -7.65039,0.0615 -3.66128,0.0363 -7.32221,0.0534 -10.98364,0.0667 -1.14383,0.0155 -2.28765,0.031 -3.46614,0.0469 -1.59131,3.4e-4 -1.59131,3.4e-4 -3.21477,6.9e-4 -1.40232,0.01 -1.40232,0.01 -2.83296,0.0202 C -132,219 -132,219 -133.80193,217.67012 -135.65311,215.08956 -135.39233,213.07321 -135,210 c 3.34617,-2.23078 4.39594,-2.24524 8.29761,-2.22705 1.08089,1.5e-4 2.16179,3e-4 3.27543,4.6e-4 1.74855,0.0155 1.74855,0.0155 3.53243,0.0313 1.19434,0.003 2.38868,0.006 3.61922,0.009 3.82103,0.0112 7.64184,0.0363 11.46281,0.0617 2.58789,0.01 5.175778,0.0191 7.763672,0.0273 6.349689,0.0221 12.699242,0.0556 19.048828,0.0977 0.10957,-0.98098 0.219141,-1.96195 0.332031,-2.97266 C -76.57008,195.56425 -75.007363,186.31416 -73,177 c -1.019487,-0.35304 -2.038975,-0.70608 -3.089355,-1.06982 -3.777761,-1.30993 -7.552839,-2.62744 -11.327149,-3.94727 -1.634693,-0.57044 -3.270108,-1.13881 -4.90625,-1.70508 -2.350072,-0.81376 -4.697454,-1.63489 -7.044433,-2.45752 -1.100083,-0.37824 -1.100083,-0.37824 -2.222383,-0.76413 -5.18269,-1.82844 -5.18269,-1.82844 -7.41043,-4.05618 0.375,-3.625 0.375,-3.625 1,-7 5.18144,-1.32885 8.897992,-0.43694 13.804688,1.30859 0.723979,0.24558 1.447959,0.49115 2.193878,0.74416 2.296707,0.78228 4.58641,1.58315 6.876434,2.38475 1.562074,0.53575 3.124571,1.07027 4.6875,1.60352 3.817537,1.30547 7.628906,2.62765 11.4375,3.95898 0.657422,-1.76537 0.657422,-1.76537 1.328125,-3.56641 C -54.862845,128.86285 -54.862845,128.86285 -48,122 c -0.05283,-5.82449 -1.286563,-11.56542 -2.4375,-17.25 -5.392816,-27.409904 -4.685568,-55.661153 0.3125,-83.0625 0.149209,-0.840952 0.298418,-1.681904 0.452148,-2.54834 C -48.213598,11.68324 -46.15376,3.9782964 -40,-0.9375 c 0.66,-0.5452734 1.32,-1.0905469 2,-1.6523438 C -26.505881,-10.694095 -11.727941,-4.8830374 0,0 Z"
       fill="#fefefe"
       transform="translate(149,100)"
       id="path1" />
    <path
       d="M 0,0 C 15.791009,6.9158478 41.059366,19.118732 49,35 54.168152,33.648694 59.308812,32.226399 64.410156,30.640625 83.650215,24.671058 102.97245,20.302063 123,18 c 0.8109,-0.09571 1.6218,-0.191426 2.45728,-0.290039 8.5196,-0.896377 17.04803,-0.95336 25.60522,-0.959961 0.79129,-6.75e-4 1.58259,-0.0013 2.39786,-0.002 14.34576,0.0193 28.36281,0.93969 42.53964,3.252045 1.02561,0.166289 2.05122,0.332578 3.10791,0.503906 14.47403,2.438303 28.34433,6.215639 42.30225,10.726563 C 245.90774,32.683136 250.3987,33.922864 255,35 c 1.14469,-1.454063 1.14469,-1.454063 2.3125,-2.9375 C 261.63827,27.025923 266.76824,23.053562 272,19 c 1.31871,-1.024805 1.31871,-1.024805 2.66406,-2.070313 C 291.79038,4.0470627 313.94505,-8.1510991 336,-6 c 3.24087,1.1363416 5.47197,2.7023279 8,5 0.55172,0.44988281 1.10344,0.89976563 1.67187,1.36328125 12.43339,11.91019475 12.0747,42.39296575 12.45313,58.35937475 0.2775,17.433181 -1.25264,34.366741 -4.80371,51.439454 -1.69538,8.18523 -1.61827,11.9446 3.05371,19.15039 6.17141,9.92471 10.39229,20.55753 14.63867,31.41357 0.99631,2.4815 0.99631,2.4815 2.98633,5.27393 0.93795,-0.33846 1.87591,-0.67692 2.84229,-1.02563 3.49509,-1.25705 6.99647,-2.4957 10.5,-3.72901 1.51283,-0.5354 3.02394,-1.07571 4.5332,-1.62109 2.17511,-0.78502 4.35592,-1.55191 6.53857,-2.31568 0.669,-0.24577 1.33799,-0.49154 2.02725,-0.74476 4.23872,-1.45859 7.21437,-1.67196 11.55869,-0.56383 0.33,2.31 0.66,4.62 1,7 -3.42283,2.96265 -7.15968,4.29707 -11.39063,5.69922 -0.70461,0.23991 -1.40922,0.47982 -2.13519,0.727 -2.23913,0.76065 -4.48153,1.51108 -6.72418,2.26128 -1.52366,0.5156 -3.04711,1.03187 -4.57031,1.54883 -3.72401,1.26226 -7.45098,2.51538 -11.17969,3.76367 0.2272,1.14215 0.2272,1.14215 0.45898,2.30737 0.68523,3.4591 1.3632,6.91958 2.04102,10.38013 0.23848,1.19818 0.47695,2.39637 0.72266,3.63086 0.22558,1.15693 0.45117,2.31387 0.68359,3.50586 0.20947,1.06307 0.41895,2.12615 0.63477,3.22143 0.42255,2.71985 0.49297,5.21071 0.45898,7.95435 0.66985,-0.004 1.33971,-0.009 2.02986,-0.0135 6.95886,-0.0442 13.91767,-0.0744 20.87663,-0.0964 2.59865,-0.0101 5.19729,-0.0237 7.7959,-0.041 3.73074,-0.0242 7.46134,-0.0356 11.19214,-0.0444 1.1657,-0.0103 2.3314,-0.0206 3.53243,-0.0313 1.08089,-1.5e-4 2.16178,-3.1e-4 3.27543,-4.6e-4 0.95264,-0.004 1.90529,-0.009 2.8868,-0.0135 C 436,208 436,208 439,210 c 0.375,3.5 0.375,3.5 0,7 -3.32576,2.21717 -4.33606,2.24543 -8.20581,2.22705 -1.06087,-1.5e-4 -2.12175,-3e-4 -3.21477,-4.6e-4 -1.14382,-0.0103 -2.28765,-0.0206 -3.46614,-0.0313 -1.17214,-0.003 -2.34429,-0.006 -3.55195,-0.009 -3.74972,-0.0112 -7.49919,-0.0363 -11.24883,-0.0617 -2.53971,-0.01 -5.07942,-0.0191 -7.61914,-0.0273 -6.23129,-0.02 -12.46206,-0.0591 -18.69336,-0.0973 0,10.56 0,21.12 0,32 8.37375,2.83485 8.37375,2.83485 16.75293,5.65356 1.04575,0.35796 2.0915,0.71592 3.16894,1.08472 1.06832,0.36134 2.13663,0.72268 3.23731,1.09497 2.68563,1.10301 4.62738,2.31054 6.84082,4.16675 -0.33,2.31 -0.66,4.62 -1,7 -4.71421,1.10941 -7.54112,0.82731 -12.05469,-0.87109 -1.10859,-0.40928 -2.21719,-0.81856 -3.35937,-1.24024 -1.71317,-0.65645 -1.71317,-0.65645 -3.46094,-1.32617 -1.16531,-0.43377 -2.33063,-0.86754 -3.53125,-1.31445 C 386.72421,264.17785 383.8602,263.09487 381,262 c -0.25245,1.44923 -0.25245,1.44923 -0.51001,2.92773 C 376.55063,287.00944 368.00375,307.71331 355,326 c -0.39494,0.5572 -0.78987,1.11439 -1.19678,1.68848 C 337.78723,349.90979 317.24822,366.59486 293,379 c -0.78939,0.4096 -1.57878,0.8192 -2.39209,1.24121 -41.58379,21.38881 -88.36495,32.17 -135.00977,32.07446 -3.19843,-0.003 -6.39592,0.0204 -9.59423,0.0457 -19.38962,0.0604 -38.41189,-2.008 -57.37891,-6.04883 -1.201326,-0.25346 -2.402651,-0.50692 -3.640381,-0.76807 C 60.526095,400.19689 37.513595,391.6317 14.9375,380.9375 13.403073,380.21385 13.403073,380.21385 11.837646,379.47559 -3.7161848,371.96151 -17.483885,361.86642 -30,350 c -0.957773,-0.89332 -1.915547,-1.78664 -2.902344,-2.70703 C -40.65573,339.91477 -47.041939,331.87881 -53,323 c -0.597239,-0.88679 -0.597239,-0.88679 -1.206543,-1.7915 C -65.819214,303.66533 -74.375383,282.94226 -77,262 c -0.73114,0.27787 -1.46228,0.55575 -2.215576,0.84204 -3.319228,1.25317 -6.645337,2.48697 -9.971924,3.72046 -1.150488,0.43764 -2.300977,0.87527 -3.486328,1.32617 -1.111817,0.40928 -2.223633,0.81856 -3.369141,1.24024 -1.021179,0.38228 -2.042358,0.76457 -3.094482,1.15844 -3.108469,0.77387 -4.839209,0.70842 -7.862549,-0.28735 -2,-2 -2,-2 -2.375,-4.4375 C -109,263 -109,263 -107.35645,261.4812 c 2.73636,-1.72 5.3725,-2.70722 8.434575,-3.74292 1.568628,-0.53693 1.568628,-0.53693 3.168945,-1.08472 1.981451,-0.66382 1.981451,-0.66382 4.00293,-1.34106 4.2075,-1.42313 8.415,-2.84625 12.75,-4.3125 0,-10.56 0,-21.12 0,-32 -3.791133,0.0348 -7.582266,0.0696 -11.488281,0.10547 -3.663648,0.0234 -7.327288,0.0416 -10.990969,0.0593 -2.55017,0.0151 -5.10031,0.0356 -7.65039,0.0615 -3.66128,0.0363 -7.32221,0.0534 -10.98364,0.0667 -1.14383,0.0155 -2.28765,0.031 -3.46614,0.0469 -1.59131,3.4e-4 -1.59131,3.4e-4 -3.21477,6.9e-4 -1.40232,0.01 -1.40232,0.01 -2.83296,0.0202 C -132,219 -132,219 -133.80193,217.67012 -135.65311,215.08956 -135.39233,213.07321 -135,210 c 3.34617,-2.23078 4.39594,-2.24524 8.29761,-2.22705 1.08089,1.5e-4 2.16179,3e-4 3.27543,4.6e-4 1.74855,0.0155 1.74855,0.0155 3.53243,0.0313 1.19434,0.003 2.38868,0.006 3.61922,0.009 3.82103,0.0112 7.64184,0.0363 11.46281,0.0617 2.58789,0.01 5.175778,0.0191 7.763672,0.0273 6.349689,0.0221 12.699242,0.0556 19.048828,0.0977 0.10957,-0.98098 0.219141,-1.96195 0.332031,-2.97266 C -76.57008,195.56425 -75.007363,186.31416 -73,177 c -1.019487,-0.35304 -2.038975,-0.70608 -3.089355,-1.06982 -3.777761,-1.30993 -7.552839,-2.62744 -11.327149,-3.94727 -1.634693,-0.57044 -3.270108,-1.13881 -4.90625,-1.70508 -2.350072,-0.81376 -4.697454,-1.63489 -7.044433,-2.45752 -1.100083,-0.37824 -1.100083,-0.37824 -2.222383,-0.76413 -5.18269,-1.82844 -5.18269,-1.82844 -7.41043,-4.05618 0.375,-3.625 0.375,-3.625 1,-7 5.18144,-1.32885 8.897992,-0.43694 13.804688,1.30859 0.723979,0.24558 1.447959,0.49115 2.193878,0.74416 2.296707,0.78228 4.58641,1.58315 6.876434,2.38475 1.562074,0.53575 3.124571,1.07027 4.6875,1.60352 3.817537,1.30547 7.628906,2.62765 11.4375,3.95898 0.657422,-1.76537 0.657422,-1.76537 1.328125,-3.56641 C -54.862845,128.86285 -54.862845,128.86285 -48,122 c -0.05283,-5.82449 -1.286563,-11.56542 -2.4375,-17.25 -5.392816,-27.409904 -4.685568,-55.661153 0.3125,-83.0625 0.149209,-0.840952 0.298418,-1.681904 0.452148,-2.54834 C -48.213598,11.68324 -46.15376,3.9782964 -40,-0.9375 c 0.66,-0.5452734 1.32,-1.0905469 2,-1.6523438 C -26.505881,-10.694095 -11.727941,-4.8830374 0,0 Z m -36,9 c -1.915596,4.537283 -3.00533,9.192984 -4,14 -0.150981,0.684331 -0.301963,1.368662 -0.45752,2.07373 -5.882551,27.826309 -5.650948,63.272254 3.004395,90.42627 1.152465,6.35843 -1.041138,10.91182 -4.484375,16.0625 C -48.040778,141.16745 -52.542465,151.55167 -57,162 c -0.37262,0.84095 -0.745239,1.6819 -1.12915,2.54834 -1.093996,2.64625 -1.093996,2.64625 -0.87085,6.45166 1.082692,0.4011 1.082692,0.4011 2.187256,0.8103 3.25114,1.20624 6.500705,2.41666 9.750244,3.6272 1.136309,0.42088 2.272617,0.84176 3.443359,1.27539 1.07959,0.40283 2.15918,0.80566 3.271485,1.2207 1.000232,0.37182 2.000464,0.74363 3.031006,1.12671 C -35,180 -35,180 -34,181 c 0.125,2.5 0.125,2.5 0,5 -1,1 -1,1 -3.421875,1.28125 -4.9552,-0.38949 -9.194592,-2.05202 -13.828125,-3.78125 -1.795925,-0.65885 -3.592758,-1.31522 -5.390625,-1.96875 -0.789229,-0.29326 -1.578457,-0.58652 -2.391602,-0.88867 C -60.971861,179.89653 -60.971861,179.89653 -63,180 c -0.84158,3.8941 -1.671811,7.79053 -2.5,11.6875 -0.238477,1.10279 -0.476953,2.20559 -0.722656,3.3418 -0.225586,1.0667 -0.451172,2.1334 -0.683594,3.23242 -0.209473,0.97928 -0.418945,1.95857 -0.634766,2.96753 -0.439032,2.65031 -0.544541,5.09069 -0.458984,7.77075 0.900934,0.0376 0.900934,0.0376 1.820068,0.0759 2.706046,0.11562 5.411715,0.2385 8.117432,0.36157 0.945527,0.0393 1.891055,0.0786 2.865234,0.11914 0.899121,0.0419 1.798243,0.0838 2.72461,0.12695 1.24898,0.055 1.24898,0.055 2.523193,0.11109 C -48,210 -48,210 -47,211 c 0.125,2.5 0.125,2.5 0,5 -1.617802,1.6178 -3.456355,1.22272 -5.691406,1.31641 -0.850218,0.0381 -1.700435,0.0762 -2.576416,0.11547 -1.087244,0.0431 -2.174488,0.0862 -3.294678,0.13062 -3.444375,0.14437 -6.88875,0.28875 -10.4375,0.4375 0,9.9 0,19.8 0,30 7.549585,-2.05898 14.70854,-4.23013 21.966797,-7.01367 C -42.882405,239.45709 -39.49978,238.57965 -35,239 c 1,1 1,1 1.0625,3.5625 -0.02063,0.80437 -0.04125,1.60875 -0.0625,2.4375 -7.842655,3.71214 -15.928188,6.42492 -24.175781,9.08789 -0.993867,0.33322 -1.987735,0.66645 -3.011719,1.00977 -0.901055,0.29398 -1.802109,0.58797 -2.730469,0.89087 -0.68707,0.33378 -1.37414,0.66757 -2.082031,1.01147 -4.510579,13.53174 7.806366,35.85838 13.835938,47.96484 C -30.940937,345.6376 5.720846,367.5545 47,384 c 1.026497,0.41886 1.026497,0.41886 2.07373,0.84619 15.858914,6.44087 33.170319,10.19087 49.92627,13.46631 1.10614,0.22055 1.10614,0.22055 2.23462,0.44556 15.89094,2.93021 31.83251,3.58878 47.95288,3.49194 0.93994,-0.003 1.87988,-0.007 2.8483,-0.0104 22.96517,-0.0982 44.58432,-1.87548 66.9642,-7.23959 1.46832,-0.34853 1.46832,-0.34853 2.96631,-0.7041 C 260.15178,385.11117 298.13632,370.32549 327,343 c 0.8843,-0.81984 1.76859,-1.63969 2.67969,-2.48438 11.41292,-10.92795 20.01281,-23.62316 27.30908,-37.58642 0.94873,-1.80997 1.93007,-3.60273 2.91357,-5.39404 C 365.84004,285.98458 371,271.06006 371,258 c -0.71543,-0.25169 -1.43086,-0.50338 -2.16797,-0.7627 -3.27926,-1.15707 -6.55564,-2.32212 -9.83203,-3.4873 -1.12535,-0.39574 -2.2507,-0.79148 -3.41016,-1.19922 C 349.49364,250.37611 343.71036,248.05112 338,245 c -0.0427,-1.66612 -0.0406,-3.33383 0,-5 0.33,-0.33 0.66,-0.66 1,-1 7.20445,0.40215 13.60151,2.69709 20.375,5.0625 2.15277,0.74343 4.30637,1.48444 6.46094,2.22266 1.41611,0.49318 1.41611,0.49318 2.86084,0.99633 2.21931,0.81778 2.21931,0.81778 4.30322,0.71851 0,-9.9 0,-19.8 0,-30 -6.86588,-0.28925 -6.86588,-0.28925 -13.73218,-0.56812 -0.85022,-0.0381 -1.70043,-0.0762 -2.57641,-0.11547 -0.87455,-0.0367 -1.7491,-0.0733 -2.65015,-0.11109 C 352,217 352,217 351,216 c -0.125,-2.5 -0.125,-2.5 0,-5 1.58404,-1.58404 3.27716,-1.21975 5.47266,-1.31641 1.34868,-0.0628 1.34868,-0.0628 2.72461,-0.12695 0.94552,-0.0393 1.89105,-0.0786 2.86523,-0.11914 0.94939,-0.0432 1.89879,-0.0864 2.87695,-0.13086 2.35336,-0.10643 4.70683,-0.20845 7.06055,-0.30664 -1.07631,-9.86404 -2.52742,-19.37343 -5,-29 -7.05942,1.62625 -13.80199,3.52207 -20.52734,6.23047 -2.64384,0.8228 -4.72022,0.98494 -7.47266,0.76953 -1,-1 -1,-1 -1.375,-3.375 C 338,181 338,181 339.87891,179.56641 c 4.34062,-2.17846 8.83898,-3.69856 13.43359,-5.25391 0.93135,-0.32033 1.8627,-0.64066 2.82227,-0.9707 2.28672,-0.7857 4.5751,-1.56612 6.86523,-2.3418 -0.2836,-1.43911 -0.57721,-2.87626 -0.875,-4.3125 -0.16242,-0.80051 -0.32484,-1.60102 -0.49219,-2.42578 -0.5776,-2.51473 -0.5776,-2.51473 -2.63281,-5.26172 -3.11872,-0.23046 -6.03829,-0.27436 -9.15234,-0.1875 -0.92874,0.0114 -1.85747,0.0227 -2.81435,0.0344 -3.97084,0.0488 -7.94075,0.13153 -11.911,0.2146 -17.08078,0.3268 -33.30948,-0.85118 -49.74731,-5.81152 -0.87205,-0.25822 -1.7441,-0.51643 -2.64258,-0.78247 C 261.2635,145.93172 240.71758,135.80561 223,122 c -1.33611,-1.00354 -1.33611,-1.00354 -2.69922,-2.02734 C 189.56758,96.038431 170.17681,63.530432 158,27 125.03721,25.496434 92.125729,31.404995 61.077393,42.321533 50.480151,46.022713 50.480151,46.022713 46,46 43.628906,44.15625 43.628906,44.15625 41.5625,41.5 26.010445,22.712282 1.0464293,7.6079593 -23.144531,3.4609375 -28.573884,3.151619 -32.957032,4.1811667 -36,9 Z"
       fill="#3c3b52"
       transform="translate(149,100)"
       id="path2" />
    <path
       d="M 0,0 C 1.2026953,-0.09087891 1.2026953,-0.09087891 2.4296875,-0.18359375 6.737426,0.80905903 9.4379732,2.9499123 12.125,6.4375 13.612457,10.12523 14.31908,13.842219 15,17.75 c 0.198516,0.994512 0.397031,1.989023 0.601563,3.013672 1.749246,9.000346 2.676672,17.837233 2.726562,27.001953 0.0069,0.863395 0.01385,1.72679 0.02098,2.616348 0.01718,2.768556 0.02359,5.536921 0.02589,8.305527 0.0013,0.942415 0.0027,1.884831 0.0041,2.855804 -0.0042,13.49628 -0.333933,26.66217 -3.254059,39.894196 -0.144053,0.66177 -0.288105,1.32354 -0.436523,2.00537 -0.623526,2.81435 -1.281837,5.61237 -2.012696,8.40088 -1.423797,6.70498 0.474128,9.87777 4.011719,15.46875 11.612449,18.99975 11.612449,18.99975 13.4375,28.125 -4.44116,1.09412 -8.80441,1.17795 -13.351563,1.20312 -0.813509,0.006 -1.627018,0.0114 -2.465179,0.0173 -1.726437,0.009 -3.452893,0.016 -5.1793517,0.0198 -2.5719634,0.01 -5.143073,0.0405 -7.7148438,0.0723 -15.2936155,0.099 -30.2306255,-1.63158 -44.9140625,-6.0625 -0.872051,-0.25822 -1.744102,-0.51643 -2.642578,-0.78247 -21.470681,-6.53634 -42.01138,-16.66425 -59.732418,-30.46753 -0.87914,-0.65742 -1.75828,-1.31484 -2.66406,-1.99219 -14.8179,-11.50513 -27.85778,-25.473372 -38.33594,-41.00781 -0.37802,-0.559937 -0.75604,-1.119873 -1.14551,-1.696777 C -156.06494,62.63048 -162.18075,49.667161 -167.375,36.125 c -0.35062,-0.913945 -0.70125,-1.827891 -1.0625,-2.769531 -2.4375,-6.52621 -2.4375,-6.52621 -2.4375,-9.917969 30.73454,0.708169 61.32853,6.069962 90.043701,17.272949 3.495236,1.348142 6.216241,2.132608 9.956299,1.727051 1.997578,-1.375467 1.997578,-1.375467 3.714844,-3.367188 0.67853,-0.715993 1.35706,-1.431987 2.056152,-2.169677 0.714946,-0.771585 1.429893,-1.543169 2.166504,-2.338135 C -47.033824,18.102858 -23.684981,1.2485693 0,0 Z"
       fill="#8bc53f"
       transform="translate(477.875,103.5625)"
       id="path3" />
    <path
       d="m 0,0 c 2.2202174,1.5285083 3.1692166,2.8635896 4.5214844,5.1865234 0.4666406,0.7791577 0.9332812,1.5583155 1.4140625,2.361084 0.4924218,0.8347486 0.9848437,1.6694971 1.4921875,2.5295406 5.4286936,8.879291 11.3970066,16.664143 18.4999996,24.25 0.479048,0.521426 0.958096,1.042852 1.451661,1.580079 34.126698,36.909959 90.896555,56.169872 139.675045,62.055419 2.08153,0.264061 4.15892,0.561536 6.23291,0.879395 12.18636,1.763139 24.28071,1.837089 36.57788,1.797609 1.0829,-8.3e-4 2.16579,-0.002 3.2815,-0.002 18.07919,-0.0318 35.73016,-0.699197 53.41284,-4.773869 2.6079,-0.590407 5.2246,-1.123813 7.84473,-1.657226 52.92168,-11.133654 105.27962,-34.797551 136.20215,-80.821289 2.31417,-3.603818 4.32531,-7.3208273 6.17285,-11.1865238 1.14843,-1.87109376 1.14843,-1.87109376 4.14843,-2.87109376 2.04297,0.55859375 2.04297,0.55859375 4.1875,1.4375 0.71543,0.28746096 1.43086,0.57492186 2.16797,0.87109376 0.5427,0.2281641 1.08539,0.4563281 1.64453,0.6914062 -1.98698,15.5036866 -5.80586,29.2034136 -13,42.9999996 -0.52086,1.000635 -0.52086,1.000635 -1.05224,2.021485 -7.05619,13.381657 -15.53421,24.959527 -25.94776,35.978515 -1.19496,1.309043 -1.19496,1.309043 -2.41406,2.644532 -29.43231,31.07732 -75.34903,45.89008 -115.9624,54.77832 -2.23088,0.49077 -4.45278,1.00711 -6.67432,1.53809 C 196.29481,157.47339 116.72173,142.11055 58.123047,106.08105 29.002213,87.439667 9.0027304,60.366682 -3.0722656,28.327148 c -0.4125,-1.07121 -0.825,-2.142421 -1.25,-3.246093 -2.6919156,-7.452252 -3.8665301,-14.895674 -4.75,-22.7539066 C -2.6785513,-0.86970871 -2.6785513,-0.86970871 0,0 Z"
       fill="#d9d9e9"
       transform="translate(91.072266,355.67285)"
       id="path4" />
    <path
       d="M 0,0 C 1.413457,-0.01160156 1.413457,-0.01160156 2.8554688,-0.0234375 10.050214,-0.00353502 17.089313,0.2055575 23.1875,4.3125 25.426292,7.7067977 26.09359,9.7415386 25.871094,13.773438 23.915369,20.265215 17.877987,25.477515 12.1875,28.875 9.125,30.25 9.125,30.25 7.125,30.25 5.4579432,38.272711 4.8627538,46.135733 4.75,54.3125 4.711328,55.686681 4.711328,55.686681 4.671875,57.088623 4.593758,62.293427 4.593758,62.293427 6.9960937,66.761719 7.6986328,67.252852 8.4011719,67.743984 9.125,68.25 c 1.206563,0.86625 1.206563,0.86625 2.4375,1.75 7.656194,2.686384 16.284443,2.09789 23.820312,-0.828125 3.566552,-1.887233 4.511364,-4.229403 5.742188,-7.921875 2.31,0 4.62,0 7,0 -0.535442,4.551259 -2.17721,7.414294 -5,11 -5.157895,4 -5.157895,4 -9,4 0.103125,1.093125 0.20625,2.18625 0.3125,3.3125 -0.03002,8.481191 -4.819506,15.986102 -10.5,21.97266 -6.770725,6.40592 -13.841032,9.75422 -23.25,10.15234 -9.7396962,-0.35269 -16.434716,-4.35175 -23.367187,-11.02344 -4.9351,-5.426851 -7.075199,-10.441611 -8.445313,-17.60156 -0.75841,-3.458876 -1.172501,-5.279169 -3.792969,-7.699219 -1.573844,-0.978197 -3.171853,-1.91872 -4.792968,-2.816406 C -42.962326,70.59839 -44.191332,68.617337 -45.875,65.25 c 0,-1.32 0,-2.64 0,-4 2.31,0 4.62,0 7,0 0.391875,0.928125 0.78375,1.85625 1.1875,2.8125 1.987299,3.494905 3.201633,4.554012 6.8125,6.1875 9.120234,2.175893 16.864517,1.801172 25.1367188,-2.710938 2.0008865,-1.16334 2.0008865,-1.16334 2.8632812,-3.289062 0.2417499,-3.348338 0.1852091,-6.706411 0.1875,-10.0625 0.018369,-1.375752 0.018369,-1.375752 0.037109,-2.779297 C -2.639134,46.113828 -3.0790592,41.347164 -4.4440918,36.224854 -4.875,34.25 -4.875,34.25 -4.875,30.25 c -0.804375,-0.165 -1.60875,-0.33 -2.4375,-0.5 -6.211818,-2.615502 -11.96999,-7.74976 -15.5625,-13.5 -0.661449,-3.081251 -0.580119,-5.906032 0,-9 C -17.380813,-0.57505468 -8.6749988,-0.07062414 0,0 Z"
       fill="#403d55"
       transform="translate(299.875,297.75)"
       id="path5" />
    <path
       d="M 0,0 C 1.1253516,-0.020625 2.2507031,-0.04125 3.4101563,-0.0625 17.04463,-0.12554959 32.265082,3.5211652 42.375,13.25 c 3.632698,4.260245 5.852194,8.299163 5.40625,13.996094 -1.450119,7.15299 -5.137857,11.258615 -10.96875,15.46875 C 33.156849,45.017201 29.411417,46.730588 25.375,48.25 24.364375,48.641875 23.35375,49.03375 22.3125,49.4375 7.5221775,53.52844 -12.603145,53.737122 -26.625,47.25 -27.604687,46.814297 -28.584375,46.378594 -29.59375,45.929687 -35.89618,42.829299 -40.660329,39.097267 -44.625,33.25 -46.297372,28.232884 -46.865918,22.94497 -44.601562,18.027344 -37.874103,8.3821739 -26.471497,3.3358424 -15.29834,0.70141602 -10.238135,-0.1530423 -5.1198292,0.02298464 0,0 Z"
       fill="#f390b2"
       transform="translate(433.625,316.75)"
       id="path6" />
    <path
       d="M 0,0 C 1.0248047,0.35191406 2.0496094,0.70382812 3.1054688,1.0664062 11.010872,4.0419803 16.502489,7.9560029 22,14.3125 c 1.959342,5.265732 1.666647,10.562562 0,15.875 C 16.629439,37.739852 9.5918018,41.840295 1,45 0.29391602,45.262566 -0.41216797,45.525132 -1.1396484,45.795654 -7.9904381,48.122143 -14.305819,48.421503 -21.5,48.3125 c -1.595215,0.0048 -1.595215,0.0048 -3.222656,0.0098 C -39.53275,48.22232 -53.54989,44.832622 -65,35 -68.927479,30.532233 -70.39607,26.010826 -70.265625,20.042969 -69.47749,13.981284 -64.022126,9.6683871 -59.613281,5.8945312 -43.975129,-5.4425449 -17.798533,-6.4136536 0,0 Z"
       fill="#f390b2"
       transform="translate(191,320)"
       id="path7" />
    <path
       d="m 0,0 c 6.9292898,4.0930081 12.986856,10.670644 15.929688,18.226562 2.30575,10.333177 1.973053,21.021809 -3.457032,30.277344 C 7.4829569,55.18745 1.2866447,60.405511 -6.8125,62.75 -15.55318,63.790557 -22.350807,62.648929 -29.675781,57.484375 -37.940512,50.573753 -42.475652,43.167831 -43.757812,32.363281 -44.168917,22.75714 -41.478706,15.054206 -35.3125,7.6875 -25.753624,-2.0575881 -13.047683,-5.7699308 0,0 Z"
       fill="#3c3b53"
       transform="translate(408.4375,250.9375)"
       id="path8" />
    <path
       d="M 0,0 C 7.7159868,5.5375206 13.339652,13.017402 15.144531,22.539062 15.99542,32.782452 14.406878,41.647697 7.8164062,49.722656 1.0961405,57.02388 -5.5523508,61.0049 -15.542969,61.851562 -24.07426,61.675164 -30.824427,57.491022 -36.875,51.761719 -44.313694,43.413362 -45.500698,34.76789 -45.253906,23.949219 -44.730745,15.313354 -40.597948,8.817913 -34.417969,2.9765625 -24.402364,-4.9862567 -11.42406,-6.7824435 0,0 Z"
       fill="#3c3b53"
       transform="translate(221.85547,252.46094)"
       id="path9" />
    <path
       d="M 0,0 C 2.8691115,2.7194187 5.066224,5.4641315 7.25,8.75 34.62613,46.741364 83.962945,66.798907 128,77 c 1.58861,0.381228 3.17715,0.762726 4.76562,1.144531 7.61398,1.793692 15.26425,3.283509 22.98438,4.542969 1.07943,0.17922 1.07943,0.17922 2.18066,0.362061 13.04506,2.018738 26.13494,2.111146 39.30079,2.08081 2.76405,-0.0054 5.52794,-2.1e-5 8.29199,0.0063 15.69482,0.0091 30.78671,-1.093635 46.22656,-3.886719 0.74535,-0.132834 1.4907,-0.265668 2.25864,-0.402527 C 265.21098,78.842728 276.14183,76.425777 287,73 c 1.01578,-0.279727 2.03156,-0.559453 3.07812,-0.847656 C 327.17167,61.713714 363.21536,43.060452 389,14 c 0.33,-0.66 0.66,-1.32 1,-2 0.66,0 1.32,0 2,0 -1.45165,4.674647 -4.1794,7.725199 -7.5,11.1875 -0.54116,0.570974 -1.08233,1.141948 -1.63989,1.730225 -1.10187,1.158556 -2.20707,2.313952 -3.31568,3.466064 -1.34059,1.402898 -2.65407,2.831614 -3.9624,4.264648 -28.77578,30.608322 -75.23144,45.080144 -114.95849,53.774415 -2.23089,0.490769 -4.45279,1.007109 -6.67432,1.538085 C 186.36708,103.14625 106.79399,87.783398 48.195312,51.753906 29.023512,39.481285 10.989202,22.081245 0,2 0,1.34 0,0.68 0,0 Z"
       fill="#f9f9fa"
       transform="translate(101,410)"
       id="path10" />
    <path
       d="m 0,0 c 1.6445312,1.328125 1.6445312,1.328125 4.0195312,3.953125 0,0.66 0,1.32 0,2 -1.146621,0.021269 -1.146621,0.021269 -2.3164062,0.042969 -30.81694,1.3721141 -58.14598,22.584932 -78.683594,43.957031 -5.283473,-1.55805 -10.54606,-3.165422 -15.785156,-4.867188 -26.479505,-8.526476 -55.180065,-15.465451 -83.214845,-14.132812 -0.66,-2.97 -1.32,-5.94 -2,-9 30.73454,0.708169 61.32853,6.069962 90.043702,17.272949 3.495236,1.348142 6.216242,2.132608 9.956299,1.727051 1.997579,-1.375467 1.997579,-1.375467 3.714844,-3.367188 0.67853,-0.715993 1.357061,-1.431987 2.056152,-2.169677 0.714947,-0.771585 1.429893,-1.543169 2.166504,-2.338135 C -56.836971,19.410467 -20.706855,-10.945635 0,0 Z"
       fill="#d0e085"
       transform="translate(484.98047,105.04688)"
       id="path11" />
    <path
       d="M 0,0 C 2.125,0.625 2.125,0.625 5,2 6.5613807,2.6900383 8.1239656,3.3773557 9.6875,4.0625 11.812811,5.009067 13.919063,5.9595316 16,7 c 2.037476,0.2285811 4.080403,0.4102428 6.125,0.5625 1.643555,0.1256836 1.643555,0.1256836 3.320312,0.2539062 C 26.709883,7.9072852 26.709883,7.9072852 28,8 28.335825,15.230733 25.926588,20.655328 21.167969,26.09375 14.067211,32.704318 7.5236001,34.579887 -2.109375,34.277344 -10.092223,33.511422 -15.654839,29.925899 -21,24 -24.52005,18.927882 -25.565064,14.089102 -26,8 -24.640684,7.8530469 -24.640684,7.8530469 -23.253906,7.703125 -14.421126,6.6188896 -7.4181729,4.9454486 0,0 Z"
       fill="#c13c3b"
       transform="translate(300,369)"
       id="path12" />
    <path
       d="m 0,0 c 3.0220794,1.7445051 5.4165108,3.8330216 7,7 0.3503236,5.342434 0.4561069,8.647865 -3,13 -4.00254616,2.668364 -7.293133,2.834024 -12,2 -2.755694,-2.181591 -4.435887,-3.871775 -6,-7 -0.350324,-5.3424343 -0.456107,-8.6478654 3,-13 3.6887638,-2.45917586 6.7184429,-2.81591937 11,-2 z"
       fill="#fbfafb"
       transform="translate(218,265)"
       id="path13" />
    <path
       d="M 0,0 C 2.8412465,1.2353246 4.4209786,2.2555439 6.3125,4.6875 7.3457944,8.1631266 7.5738497,11.440765 7,15 c -3,5.5 -3,5.5 -6,7 -3.0594084,0.420744 -5.9459708,0.479994 -9,0 -4.327449,-3.335742 -5.713488,-5.871622 -6.4375,-11.25 0.510836,-4.3785936 1.602167,-6.2827171 4.5898437,-9.4257813 C -6.4448158,-1.1146035 -4.084405,-0.64831826 0,0 Z"
       fill="#fbfbfb"
       transform="translate(391,265)"
       id="path14" />
    <path
       d="m 0,0 c 3.3722377,0.7782087 4.4947794,1.6843954 6.4375,4.5625 0.6359493,3.5118531 0.6301727,6.739655 -1,10 -3.2586419,1.629321 -6.4389734,1.526735 -10,1 -2,-1.0625 -2,-1.0625 -3,-3 -0.5,-3.375 -0.5,-3.375 0,-7 C -5.2505236,2.457846 -3.8196683,0.83846377 0,0 Z"
       fill="#757585"
       transform="translate(405.5625,286.4375)"
       id="path15" />
    <path
       d="m 0,0 c 3.4375,0.9375 3.4375,0.9375 5.375,2 1.7529313,3.1965217 1.5803072,6.3868217 1.0625,9.9375 -1,2 -1,2 -3,3 -2.76089844,0.454398 -5.2436205,0.505336 -8,0 -2.9178164,-2.279544 -2.9782039,-3.825631 -3.4375,-7.5 0.4375,-3.5 0.4375,-3.5 2,-6 2.4375,-1.5 2.4375,-1.5 6,-1.4375 z"
       fill="#757585"
       transform="translate(197.5625,287.0625)"
       id="path16" />
    <path
       d="m 0,0 c -0.33,0.99 -0.66,1.98 -1,3 -3.845866,1.2819553 -7.493226,1.1841555 -11.5,1.1875 -1.158223,0.018369 -1.158223,0.018369 -2.339844,0.037109 C -18.748265,4.2347699 -20.676419,4.2157205 -24,2 c 0.33,-0.99 0.66,-1.98 1,-3 7.619908,-3.7122628 15.7090789,-2.8039588 23,1 z"
       fill="#f2f1f3"
       transform="translate(313,305)"
       id="path17" />
    <path
       d="m 0,0 c 0.33,0 0.66,0 1,0 0.33,5.94 0.66,11.88 1,18 -4.455,-0.99 -4.455,-0.99 -9,-2 0.66,-0.33 1.32,-0.66 2,-1 0.8412039,-2.175357 0.8412039,-2.175357 1.5,-4.75 C -2.5080154,6.7352525 -1.4548682,3.3573882 0,0 Z"
       fill="#d8d8e7"
       transform="translate(520,330)"
       id="path18" />
    <path
       d="M 0,0 C 3.1526831,4.7290247 5.5266815,9.2065032 5,15 4.38125,15.12375 3.7625,15.2475 3.125,15.375 0.80879168,15.871974 0.80879168,15.871974 -1,18 -1.0970611,11.88515 -0.77040851,6.066967 0,0 Z"
       fill="#d2d1e1"
       transform="translate(81,330)"
       id="path19" />
    <path
       d="m 0,0 c 10.558087,-0.18451025 10.558087,-0.18451025 15,1 0,0.33 0,0.66 0,1 C 13.868203,2.1327734 12.736406,2.2655469 11.570313,2.4023438 10.088518,2.5805342 8.6067486,2.7589303 7.125,2.9375 6.0054492,3.0680176 6.0054492,3.0680176 4.8632812,3.2011719 0.8046769,3.6332606 0.8046769,3.6332606 -3,5 c 0,0.66 0,1.32 0,2 1.9600281,1.6367626 1.9600281,1.6367626 4,3 C -0.65,9.67 -2.3,9.34 -4,9 -4.33,7.35 -4.66,5.7 -5,4 -3.35,3.34 -1.7,2.68 0,2 0,1.34 0,0.68 0,0 Z"
       fill="#33334d"
       transform="translate(293,300)"
       id="path20" />
    <path
       d="M 0,0 C 4.2024001,3.7175078 6.9978268,8.3166098 10,13 9.01,13 8.02,13 7,13 5.1757812,10.664063 5.1757812,10.664063 3.3125,7.625 2.6898828,6.6272656 2.0672656,5.6295313 1.4257812,4.6015625 0,2 0,2 0,0 Z"
       fill="#f0eff2"
       transform="translate(101,410)"
       id="path21" />
    <path
       d="M 0,0 C 1.9541831,2.9312746 2.6470099,4.5583468 3,8 2.34,8.66 1.68,9.32 1,10 0,9 0,9 -0.09765625,6.9335937 -0.08605469,6.1098828 -0.07445313,5.2861719 -0.0625,4.4375 -0.05347656,3.6112109 -0.04445313,2.7849219 -0.03515625,1.9335937 -0.02355469,1.2955078 -0.01195313,0.65742188 0,0 Z"
       fill="#dadaea"
       transform="translate(81,330)"
       id="path22" />
  </g>
</svg>
