<?xml version="1.0" encoding="UTF-8"?>
<svg version="1.1" xmlns="http://www.w3.org/2000/svg" width="600" height="600">
<path d="M0 0 C15.79100928 6.91584779 41.05936611 19.11873222 49 35 C54.16815156 33.64869432 59.30881207 32.2263993 64.41015625 30.640625 C83.650215 24.67105757 102.97244697 20.30206337 123 18 C123.81090088 17.90428711 124.62180176 17.80857422 125.45727539 17.70996094 C133.97687511 16.81358371 142.50530938 16.75660096 151.0625 16.75 C151.85379303 16.74932526 152.64508606 16.74865051 153.46035767 16.74795532 C167.80611877 16.76725205 181.82316912 17.68764486 196 20 C197.02561035 20.16628906 198.0512207 20.33257812 199.10791016 20.50390625 C213.58194434 22.94220869 227.45224341 26.71954518 241.41015625 31.23046875 C245.90773627 32.68313627 250.39869758 33.92286438 255 35 C256.1446875 33.5459375 256.1446875 33.5459375 257.3125 32.0625 C261.63827009 27.02592261 266.76824058 23.05356159 272 19 C273.31871094 17.97519531 273.31871094 17.97519531 274.6640625 16.9296875 C291.79037552 4.04706266 313.94505249 -8.15109914 336 -6 C339.24086653 -4.86365843 341.47197 -3.29767213 344 -1 C344.55171875 -0.55011719 345.1034375 -0.10023437 345.671875 0.36328125 C358.10525693 12.27347632 357.74657435 42.75624746 358.125 58.72265625 C358.40249906 76.15583669 356.8723631 93.08939717 353.32128906 110.16210938 C351.62591428 118.34734034 351.70302188 122.10671343 356.375 129.3125 C362.54640654 139.23721131 366.76729404 149.87003071 371.01367188 160.72607422 C372.00997937 163.2075739 372.00997937 163.2075739 374 166 C374.9379541 165.66154053 375.8759082 165.32308105 376.84228516 164.97436523 C380.3373763 163.717321 383.83875661 162.47867301 387.34228516 161.24536133 C388.8551198 160.70996349 390.36622518 160.1696522 391.87548828 159.62426758 C394.05060154 158.83924813 396.23140896 158.07235805 398.4140625 157.30859375 C399.08305573 157.06282089 399.75204895 156.81704803 400.4413147 156.56382751 C404.68002999 155.10523765 407.65567579 154.891874 412 156 C412.33 158.31 412.66 160.62 413 163 C409.57716984 165.96264966 405.84032195 167.2970676 401.609375 168.69921875 C400.90476135 168.9391304 400.20014771 169.17904205 399.47418213 169.42622375 C397.23505068 170.18686833 394.992651 170.9373039 392.75 171.6875 C391.22633519 172.2031048 389.70289492 172.71937365 388.1796875 173.23632812 C384.45568144 174.49859038 380.72871207 175.75171132 377 177 C377.22719727 178.14214966 377.22719727 178.14214966 377.45898438 179.30737305 C378.14421445 182.76646718 378.82217858 186.22694684 379.5 189.6875 C379.73847656 190.88568359 379.97695313 192.08386719 380.22265625 193.31835938 C380.44824219 194.47529297 380.67382812 195.63222656 380.90625 196.82421875 C381.11572266 197.88729248 381.32519531 198.95036621 381.54101562 200.0456543 C381.96356857 202.76550176 382.03399285 205.25636094 382 208 C382.66985428 207.99555878 383.33970856 207.99111755 384.02986145 207.98654175 C390.98871736 207.94236556 397.94753357 207.91215735 404.90649414 207.89013672 C407.50514341 207.88006632 410.10378131 207.86640929 412.70239258 207.84912109 C416.43313397 207.82491861 420.16372581 207.81352734 423.89453125 207.8046875 C425.06023148 207.79436493 426.2259317 207.78404236 427.42695618 207.77340698 C428.50785019 207.77325592 429.5887442 207.77310486 430.70239258 207.77294922 C431.65503494 207.768508 432.60767731 207.76406677 433.58918762 207.75949097 C436 208 436 208 439 210 C439.375 213.5 439.375 213.5 439 217 C435.67424478 219.21717015 434.6639376 219.24543438 430.79418945 219.22705078 C429.73331619 219.22689972 428.67244293 219.22674866 427.579422 219.22659302 C426.43559555 219.21627045 425.2917691 219.20594788 424.11328125 219.1953125 C422.94113571 219.1924826 421.76899017 219.18965271 420.56132507 219.18673706 C416.81161357 219.17552753 413.06213951 219.15042128 409.3125 219.125 C406.7727899 219.11497121 404.23307607 219.10584519 401.69335938 219.09765625 C395.46207415 219.07728592 389.23130337 219.03813786 383 219 C383 229.56 383 240.12 383 251 C391.37375028 253.83484624 391.37375028 253.83484624 399.75292969 256.65356445 C400.79868164 257.011521 401.84443359 257.36947754 402.921875 257.73828125 C403.99018555 258.09962158 405.05849609 258.46096191 406.15917969 258.83325195 C408.84481299 259.93626343 410.7865583 261.14379098 413 263 C412.67 265.31 412.34 267.62 412 270 C407.28578761 271.10940722 404.45888074 270.82731079 399.9453125 269.12890625 C398.83671875 268.71962891 397.728125 268.31035156 396.5859375 267.88867188 C394.87277344 267.2322168 394.87277344 267.2322168 393.125 266.5625 C391.9596875 266.12873047 390.794375 265.69496094 389.59375 265.24804688 C386.72420974 264.17784948 383.86019585 263.09487408 381 262 C380.74754517 263.44922852 380.74754517 263.44922852 380.48999023 264.92773438 C376.55062593 287.00944296 368.00375302 307.71330705 355 326 C354.60506348 326.55719727 354.21012695 327.11439453 353.80322266 327.68847656 C337.78722983 349.90978609 317.24821975 366.59485947 293 379 C292.21061035 379.40959961 291.4212207 379.81919922 290.60791016 380.24121094 C249.02411918 401.63002292 202.24296109 412.41121396 155.59814453 412.31567383 C152.39971429 412.31252434 149.20222247 412.3360382 146.00390625 412.36132812 C126.61429184 412.42170032 107.59202246 410.35333117 88.625 406.3125 C87.42367432 406.05903809 86.22234863 405.80557617 84.98461914 405.54443359 C60.52609454 400.19688811 37.51359475 391.63170264 14.9375 380.9375 C13.40307251 380.21385254 13.40307251 380.21385254 11.83764648 379.47558594 C-3.71618482 371.96151091 -17.48388475 361.86642378 -30 350 C-30.95777344 349.10667969 -31.91554688 348.21335937 -32.90234375 347.29296875 C-40.65572967 339.91476691 -47.04193917 331.87881332 -53 323 C-53.59723877 322.11320557 -53.59723877 322.11320557 -54.20654297 321.20849609 C-65.819214 303.66532892 -74.37538303 282.94225623 -77 262 C-77.73114014 262.27787354 -78.46228027 262.55574707 -79.21557617 262.84204102 C-82.53480428 264.09521091 -85.86091287 265.32900516 -89.1875 266.5625 C-90.33798828 267.00013672 -91.48847656 267.43777344 -92.67382812 267.88867188 C-93.78564453 268.29794922 -94.89746094 268.70722656 -96.04296875 269.12890625 C-97.06414795 269.51119385 -98.08532715 269.89348145 -99.13745117 270.28735352 C-102.24591699 271.06122232 -103.97665767 270.99576648 -107 270 C-109 268 -109 268 -109.375 265.5625 C-109 263 -109 263 -107.35644531 261.48120117 C-104.62009069 259.76119874 -101.9839535 258.77398427 -98.921875 257.73828125 C-97.35324707 257.20134644 -97.35324707 257.20134644 -95.75292969 256.65356445 C-93.77147949 255.98973755 -93.77147949 255.98973755 -91.75 255.3125 C-87.5425 253.889375 -83.335 252.46625 -79 251 C-79 240.44 -79 229.88 -79 219 C-82.79113281 219.03480469 -86.58226562 219.06960938 -90.48828125 219.10546875 C-94.15192918 219.12885151 -97.81556887 219.14707544 -101.47924805 219.16479492 C-104.02941598 219.17990005 -106.57955786 219.20038533 -109.12963867 219.22631836 C-112.79091819 219.26262504 -116.45185485 219.27970915 -120.11328125 219.29296875 C-121.2571077 219.30845261 -122.40093414 219.32393646 -123.579422 219.33988953 C-125.17073189 219.34022942 -125.17073189 219.34022942 -126.79418945 219.34057617 C-128.19650566 219.35056892 -128.19650566 219.35056892 -129.62715149 219.36076355 C-132 219 -132 219 -133.80192566 217.67012024 C-135.65310878 215.08956384 -135.39232523 213.07321428 -135 210 C-131.65383108 207.76922072 -130.60406041 207.75475963 -126.70239258 207.77294922 C-125.62149857 207.77310028 -124.54060455 207.77325134 -123.42695618 207.77340698 C-121.67840584 207.78889084 -121.67840584 207.78889084 -119.89453125 207.8046875 C-118.70018967 207.8075174 -117.50584808 207.81034729 -116.27531433 207.81326294 C-112.45427503 207.82447323 -108.63346866 207.84957963 -104.8125 207.875 C-102.22461276 207.88502869 -99.63672184 207.89415473 -97.04882812 207.90234375 C-90.69913904 207.92441535 -84.34958616 207.9579014 -78 208 C-77.89042969 207.01902344 -77.78085938 206.03804687 -77.66796875 205.02734375 C-76.57007992 195.56425036 -75.00736298 186.31416421 -73 177 C-74.0194873 176.64695801 -75.03897461 176.29391602 -76.08935547 175.93017578 C-79.8671164 174.62025181 -83.6421943 173.30274213 -87.41650391 171.98291016 C-89.05119671 171.41247217 -90.68661222 170.8441009 -92.32275391 170.27783203 C-94.67282568 169.46407158 -97.02020797 168.64294211 -99.3671875 167.8203125 C-100.46726639 167.44206833 -100.46726639 167.44206833 -101.58956909 167.05618286 C-106.77225659 165.22774341 -106.77225659 165.22774341 -109 163 C-108.625 159.375 -108.625 159.375 -108 156 C-102.81855627 154.67115355 -99.10200839 155.56305856 -94.1953125 157.30859375 C-93.4713327 157.55416519 -92.74735291 157.79973663 -92.00143433 158.05274963 C-89.70472657 158.83502509 -87.41502391 159.63589537 -85.125 160.4375 C-83.56292592 160.97324867 -82.00042943 161.5077674 -80.4375 162.04101562 C-76.61996312 163.34648987 -72.80859368 164.66867182 -69 166 C-68.34257812 164.23462891 -68.34257812 164.23462891 -67.671875 162.43359375 C-54.86284513 128.86284513 -54.86284513 128.86284513 -48 122 C-48.05282982 116.17551193 -49.28656339 110.43457521 -50.4375 104.75 C-55.83031604 77.34009604 -55.1230682 49.08884652 -50.125 21.6875 C-49.97579102 20.84654785 -49.82658203 20.0055957 -49.67285156 19.13916016 C-48.21359793 11.68323951 -46.15375978 3.97829639 -40 -0.9375 C-39.34 -1.48277344 -38.68 -2.02804688 -38 -2.58984375 C-26.5058814 -10.69409534 -11.72794128 -4.88303739 0 0 Z " fill="#FEFEFE" transform="translate(149,100)"/>
<path d="M0 0 C15.79100928 6.91584779 41.05936611 19.11873222 49 35 C54.16815156 33.64869432 59.30881207 32.2263993 64.41015625 30.640625 C83.650215 24.67105757 102.97244697 20.30206337 123 18 C123.81090088 17.90428711 124.62180176 17.80857422 125.45727539 17.70996094 C133.97687511 16.81358371 142.50530938 16.75660096 151.0625 16.75 C151.85379303 16.74932526 152.64508606 16.74865051 153.46035767 16.74795532 C167.80611877 16.76725205 181.82316912 17.68764486 196 20 C197.02561035 20.16628906 198.0512207 20.33257812 199.10791016 20.50390625 C213.58194434 22.94220869 227.45224341 26.71954518 241.41015625 31.23046875 C245.90773627 32.68313627 250.39869758 33.92286438 255 35 C256.1446875 33.5459375 256.1446875 33.5459375 257.3125 32.0625 C261.63827009 27.02592261 266.76824058 23.05356159 272 19 C273.31871094 17.97519531 273.31871094 17.97519531 274.6640625 16.9296875 C291.79037552 4.04706266 313.94505249 -8.15109914 336 -6 C339.24086653 -4.86365843 341.47197 -3.29767213 344 -1 C344.55171875 -0.55011719 345.1034375 -0.10023437 345.671875 0.36328125 C358.10525693 12.27347632 357.74657435 42.75624746 358.125 58.72265625 C358.40249906 76.15583669 356.8723631 93.08939717 353.32128906 110.16210938 C351.62591428 118.34734034 351.70302188 122.10671343 356.375 129.3125 C362.54640654 139.23721131 366.76729404 149.87003071 371.01367188 160.72607422 C372.00997937 163.2075739 372.00997937 163.2075739 374 166 C374.9379541 165.66154053 375.8759082 165.32308105 376.84228516 164.97436523 C380.3373763 163.717321 383.83875661 162.47867301 387.34228516 161.24536133 C388.8551198 160.70996349 390.36622518 160.1696522 391.87548828 159.62426758 C394.05060154 158.83924813 396.23140896 158.07235805 398.4140625 157.30859375 C399.08305573 157.06282089 399.75204895 156.81704803 400.4413147 156.56382751 C404.68002999 155.10523765 407.65567579 154.891874 412 156 C412.33 158.31 412.66 160.62 413 163 C409.57716984 165.96264966 405.84032195 167.2970676 401.609375 168.69921875 C400.90476135 168.9391304 400.20014771 169.17904205 399.47418213 169.42622375 C397.23505068 170.18686833 394.992651 170.9373039 392.75 171.6875 C391.22633519 172.2031048 389.70289492 172.71937365 388.1796875 173.23632812 C384.45568144 174.49859038 380.72871207 175.75171132 377 177 C377.22719727 178.14214966 377.22719727 178.14214966 377.45898438 179.30737305 C378.14421445 182.76646718 378.82217858 186.22694684 379.5 189.6875 C379.73847656 190.88568359 379.97695313 192.08386719 380.22265625 193.31835938 C380.44824219 194.47529297 380.67382812 195.63222656 380.90625 196.82421875 C381.11572266 197.88729248 381.32519531 198.95036621 381.54101562 200.0456543 C381.96356857 202.76550176 382.03399285 205.25636094 382 208 C382.66985428 207.99555878 383.33970856 207.99111755 384.02986145 207.98654175 C390.98871736 207.94236556 397.94753357 207.91215735 404.90649414 207.89013672 C407.50514341 207.88006632 410.10378131 207.86640929 412.70239258 207.84912109 C416.43313397 207.82491861 420.16372581 207.81352734 423.89453125 207.8046875 C425.06023148 207.79436493 426.2259317 207.78404236 427.42695618 207.77340698 C428.50785019 207.77325592 429.5887442 207.77310486 430.70239258 207.77294922 C431.65503494 207.768508 432.60767731 207.76406677 433.58918762 207.75949097 C436 208 436 208 439 210 C439.375 213.5 439.375 213.5 439 217 C435.67424478 219.21717015 434.6639376 219.24543438 430.79418945 219.22705078 C429.73331619 219.22689972 428.67244293 219.22674866 427.579422 219.22659302 C426.43559555 219.21627045 425.2917691 219.20594788 424.11328125 219.1953125 C422.94113571 219.1924826 421.76899017 219.18965271 420.56132507 219.18673706 C416.81161357 219.17552753 413.06213951 219.15042128 409.3125 219.125 C406.7727899 219.11497121 404.23307607 219.10584519 401.69335938 219.09765625 C395.46207415 219.07728592 389.23130337 219.03813786 383 219 C383 229.56 383 240.12 383 251 C391.37375028 253.83484624 391.37375028 253.83484624 399.75292969 256.65356445 C400.79868164 257.011521 401.84443359 257.36947754 402.921875 257.73828125 C403.99018555 258.09962158 405.05849609 258.46096191 406.15917969 258.83325195 C408.84481299 259.93626343 410.7865583 261.14379098 413 263 C412.67 265.31 412.34 267.62 412 270 C407.28578761 271.10940722 404.45888074 270.82731079 399.9453125 269.12890625 C398.83671875 268.71962891 397.728125 268.31035156 396.5859375 267.88867188 C394.87277344 267.2322168 394.87277344 267.2322168 393.125 266.5625 C391.9596875 266.12873047 390.794375 265.69496094 389.59375 265.24804688 C386.72420974 264.17784948 383.86019585 263.09487408 381 262 C380.74754517 263.44922852 380.74754517 263.44922852 380.48999023 264.92773438 C376.55062593 287.00944296 368.00375302 307.71330705 355 326 C354.60506348 326.55719727 354.21012695 327.11439453 353.80322266 327.68847656 C337.78722983 349.90978609 317.24821975 366.59485947 293 379 C292.21061035 379.40959961 291.4212207 379.81919922 290.60791016 380.24121094 C249.02411918 401.63002292 202.24296109 412.41121396 155.59814453 412.31567383 C152.39971429 412.31252434 149.20222247 412.3360382 146.00390625 412.36132812 C126.61429184 412.42170032 107.59202246 410.35333117 88.625 406.3125 C87.42367432 406.05903809 86.22234863 405.80557617 84.98461914 405.54443359 C60.52609454 400.19688811 37.51359475 391.63170264 14.9375 380.9375 C13.40307251 380.21385254 13.40307251 380.21385254 11.83764648 379.47558594 C-3.71618482 371.96151091 -17.48388475 361.86642378 -30 350 C-30.95777344 349.10667969 -31.91554688 348.21335937 -32.90234375 347.29296875 C-40.65572967 339.91476691 -47.04193917 331.87881332 -53 323 C-53.59723877 322.11320557 -53.59723877 322.11320557 -54.20654297 321.20849609 C-65.819214 303.66532892 -74.37538303 282.94225623 -77 262 C-77.73114014 262.27787354 -78.46228027 262.55574707 -79.21557617 262.84204102 C-82.53480428 264.09521091 -85.86091287 265.32900516 -89.1875 266.5625 C-90.33798828 267.00013672 -91.48847656 267.43777344 -92.67382812 267.88867188 C-93.78564453 268.29794922 -94.89746094 268.70722656 -96.04296875 269.12890625 C-97.06414795 269.51119385 -98.08532715 269.89348145 -99.13745117 270.28735352 C-102.24591699 271.06122232 -103.97665767 270.99576648 -107 270 C-109 268 -109 268 -109.375 265.5625 C-109 263 -109 263 -107.35644531 261.48120117 C-104.62009069 259.76119874 -101.9839535 258.77398427 -98.921875 257.73828125 C-97.35324707 257.20134644 -97.35324707 257.20134644 -95.75292969 256.65356445 C-93.77147949 255.98973755 -93.77147949 255.98973755 -91.75 255.3125 C-87.5425 253.889375 -83.335 252.46625 -79 251 C-79 240.44 -79 229.88 -79 219 C-82.79113281 219.03480469 -86.58226562 219.06960938 -90.48828125 219.10546875 C-94.15192918 219.12885151 -97.81556887 219.14707544 -101.47924805 219.16479492 C-104.02941598 219.17990005 -106.57955786 219.20038533 -109.12963867 219.22631836 C-112.79091819 219.26262504 -116.45185485 219.27970915 -120.11328125 219.29296875 C-121.2571077 219.30845261 -122.40093414 219.32393646 -123.579422 219.33988953 C-125.17073189 219.34022942 -125.17073189 219.34022942 -126.79418945 219.34057617 C-128.19650566 219.35056892 -128.19650566 219.35056892 -129.62715149 219.36076355 C-132 219 -132 219 -133.80192566 217.67012024 C-135.65310878 215.08956384 -135.39232523 213.07321428 -135 210 C-131.65383108 207.76922072 -130.60406041 207.75475963 -126.70239258 207.77294922 C-125.62149857 207.77310028 -124.54060455 207.77325134 -123.42695618 207.77340698 C-121.67840584 207.78889084 -121.67840584 207.78889084 -119.89453125 207.8046875 C-118.70018967 207.8075174 -117.50584808 207.81034729 -116.27531433 207.81326294 C-112.45427503 207.82447323 -108.63346866 207.84957963 -104.8125 207.875 C-102.22461276 207.88502869 -99.63672184 207.89415473 -97.04882812 207.90234375 C-90.69913904 207.92441535 -84.34958616 207.9579014 -78 208 C-77.89042969 207.01902344 -77.78085938 206.03804687 -77.66796875 205.02734375 C-76.57007992 195.56425036 -75.00736298 186.31416421 -73 177 C-74.0194873 176.64695801 -75.03897461 176.29391602 -76.08935547 175.93017578 C-79.8671164 174.62025181 -83.6421943 173.30274213 -87.41650391 171.98291016 C-89.05119671 171.41247217 -90.68661222 170.8441009 -92.32275391 170.27783203 C-94.67282568 169.46407158 -97.02020797 168.64294211 -99.3671875 167.8203125 C-100.46726639 167.44206833 -100.46726639 167.44206833 -101.58956909 167.05618286 C-106.77225659 165.22774341 -106.77225659 165.22774341 -109 163 C-108.625 159.375 -108.625 159.375 -108 156 C-102.81855627 154.67115355 -99.10200839 155.56305856 -94.1953125 157.30859375 C-93.4713327 157.55416519 -92.74735291 157.79973663 -92.00143433 158.05274963 C-89.70472657 158.83502509 -87.41502391 159.63589537 -85.125 160.4375 C-83.56292592 160.97324867 -82.00042943 161.5077674 -80.4375 162.04101562 C-76.61996312 163.34648987 -72.80859368 164.66867182 -69 166 C-68.34257812 164.23462891 -68.34257812 164.23462891 -67.671875 162.43359375 C-54.86284513 128.86284513 -54.86284513 128.86284513 -48 122 C-48.05282982 116.17551193 -49.28656339 110.43457521 -50.4375 104.75 C-55.83031604 77.34009604 -55.1230682 49.08884652 -50.125 21.6875 C-49.97579102 20.84654785 -49.82658203 20.0055957 -49.67285156 19.13916016 C-48.21359793 11.68323951 -46.15375978 3.97829639 -40 -0.9375 C-39.34 -1.48277344 -38.68 -2.02804688 -38 -2.58984375 C-26.5058814 -10.69409534 -11.72794128 -4.88303739 0 0 Z M-36 9 C-37.91559649 13.53728314 -39.00533019 18.19298368 -40 23 C-40.15098145 23.68433105 -40.30196289 24.36866211 -40.45751953 25.07373047 C-46.34007089 52.90003866 -46.10846775 88.34598353 -37.453125 115.5 C-36.30065957 121.85842998 -38.4942628 126.41181838 -41.9375 131.5625 C-48.04077808 141.1674543 -52.54246481 151.55166782 -57 162 C-57.37261963 162.84095215 -57.74523926 163.6819043 -58.12915039 164.54833984 C-59.223146 167.19458976 -59.223146 167.19458976 -59 171 C-57.91730835 171.40109985 -57.91730835 171.40109985 -56.81274414 171.81030273 C-53.56160355 173.01653593 -50.31203908 174.22695944 -47.0625 175.4375 C-45.92619141 175.85837891 -44.78988281 176.27925781 -43.61914062 176.71289062 C-42.53955078 177.11572266 -41.45996094 177.51855469 -40.34765625 177.93359375 C-39.34742432 178.30540771 -38.34719238 178.67722168 -37.31665039 179.06030273 C-35 180 -35 180 -34 181 C-33.875 183.5 -33.875 183.5 -34 186 C-35 187 -35 187 -37.421875 187.28125 C-42.37707467 186.89175832 -46.61646676 185.22922926 -51.25 183.5 C-53.04592512 182.84115495 -54.84275797 182.18477733 -56.640625 181.53125 C-57.42985352 181.23798828 -58.21908203 180.94472656 -59.03222656 180.64257812 C-60.971861 179.89652694 -60.971861 179.89652694 -63 180 C-63.84158017 183.89409888 -64.6718106 187.79053312 -65.5 191.6875 C-65.73847656 192.79029297 -65.97695312 193.89308594 -66.22265625 195.02929688 C-66.44824219 196.09599609 -66.67382812 197.16269531 -66.90625 198.26171875 C-67.11572266 199.24100342 -67.32519531 200.22028809 -67.54101562 201.22924805 C-67.9800481 203.87955633 -68.08555667 206.31993732 -68 209 C-67.09906616 209.03758423 -67.09906616 209.03758423 -66.17993164 209.07592773 C-63.47388563 209.1915528 -60.76821717 209.31442936 -58.0625 209.4375 C-57.11697266 209.47681641 -56.17144531 209.51613281 -55.19726562 209.55664062 C-54.29814453 209.59853516 -53.39902344 209.64042969 -52.47265625 209.68359375 C-51.22367554 209.73858032 -51.22367554 209.73858032 -49.94946289 209.79467773 C-48 210 -48 210 -47 211 C-46.875 213.5 -46.875 213.5 -47 216 C-48.61780157 217.61780157 -50.45635518 217.22272147 -52.69140625 217.31640625 C-53.54162354 217.35451416 -54.39184082 217.39262207 -55.26782227 217.43188477 C-56.35506592 217.47498779 -57.44230957 217.51809082 -58.5625 217.5625 C-62.006875 217.706875 -65.45125 217.85125 -69 218 C-69 227.9 -69 237.8 -69 248 C-61.45041474 245.9410222 -54.29146032 243.76986647 -47.03320312 240.98632812 C-42.88240538 239.45708685 -39.49978008 238.57965301 -35 239 C-34 240 -34 240 -33.9375 242.5625 C-33.958125 243.366875 -33.97875 244.17125 -34 245 C-41.84265523 248.71214063 -49.9281876 251.4249222 -58.17578125 254.08789062 C-59.16964844 254.42111328 -60.16351563 254.75433594 -61.1875 255.09765625 C-62.08855469 255.39164307 -62.98960938 255.68562988 -63.91796875 255.98852539 C-64.60503906 256.32231201 -65.29210937 256.65609863 -66 257 C-70.51057893 270.53173678 -58.19363429 292.8583813 -52.1640625 304.96484375 C-30.94093696 345.63760189 5.72084603 367.55450269 47 384 C48.02649658 384.41886475 48.02649658 384.41886475 49.07373047 384.84619141 C64.93264408 391.28706175 82.24404892 395.0370574 99 398.3125 C100.10613647 398.53305054 100.10613647 398.53305054 101.23461914 398.75805664 C117.12556235 401.68826505 133.06712668 402.34683572 149.1875 402.25 C150.12743805 402.24656586 151.0673761 402.24313171 152.03579712 402.23959351 C175.00096746 402.1414403 196.62012162 400.36410697 219 395 C220.46832275 394.65146973 220.46832275 394.65146973 221.96630859 394.29589844 C260.15178339 385.11117051 298.13632317 370.32548715 327 343 C327.88429688 342.18015625 328.76859375 341.3603125 329.6796875 340.515625 C341.09260769 329.58767309 349.6924999 316.89245649 356.98876953 302.92919922 C357.9375013 301.1192334 358.91884022 299.32646556 359.90234375 297.53515625 C365.84004038 285.98458229 371 271.06005503 371 258 C370.28457031 257.74831055 369.56914063 257.49662109 368.83203125 257.23730469 C365.55276813 256.08022964 362.27639073 254.91518243 359 253.75 C357.87464844 253.35425781 356.74929688 252.95851563 355.58984375 252.55078125 C349.4936428 250.37611307 343.71035913 248.05112326 338 245 C337.957279 243.33388095 337.95936168 241.66617115 338 240 C338.33 239.67 338.66 239.34 339 239 C346.2044491 239.40214858 352.60150643 241.69708819 359.375 244.0625 C361.5277689 244.80592964 363.68137374 245.5469445 365.8359375 246.28515625 C367.25205322 246.77834351 367.25205322 246.77834351 368.69677734 247.28149414 C370.91609375 248.0992675 370.91609375 248.0992675 373 248 C373 238.1 373 228.2 373 218 C366.13412283 217.71075131 366.13412283 217.71075131 359.26782227 217.43188477 C358.41760498 217.39377686 357.5673877 217.35566895 356.69140625 217.31640625 C355.81685791 217.27974854 354.94230957 217.24309082 354.04125977 217.20532227 C352 217 352 217 351 216 C350.875 213.5 350.875 213.5 351 211 C352.58403524 209.41596476 354.2771638 209.78025065 356.47265625 209.68359375 C357.82133789 209.62075195 357.82133789 209.62075195 359.19726562 209.55664062 C360.14279297 209.51732422 361.08832031 209.47800781 362.0625 209.4375 C363.01189453 209.39431641 363.96128906 209.35113281 364.93945312 209.30664062 C367.29281353 209.20020724 369.64628354 209.09818992 372 209 C370.92369243 199.13595767 369.47257757 189.62656867 367 180 C359.94058027 181.62625376 353.19800975 183.52206847 346.47265625 186.23046875 C343.82882327 187.05327301 341.75243791 187.21540818 339 187 C338 186 338 186 337.625 183.625 C338 181 338 181 339.87890625 179.56640625 C344.21952794 177.38794655 348.71788641 175.86784976 353.3125 174.3125 C354.24384766 173.99216797 355.17519531 173.67183594 356.13476562 173.34179688 C358.42148724 172.55610278 360.70986781 171.7756848 363 171 C362.71640113 169.5608866 362.42278601 168.12374482 362.125 166.6875 C361.96257812 165.88699219 361.80015625 165.08648437 361.6328125 164.26171875 C361.05521001 161.74698882 361.05521001 161.74698882 359 159 C355.88127716 158.76953831 352.96171372 158.72563971 349.84765625 158.8125 C348.91892197 158.82385986 347.99018768 158.83521973 347.03330994 158.84692383 C343.06247137 158.89569488 339.09256323 158.97844591 335.12231445 159.06152344 C318.04152565 159.38831876 301.81282679 158.21033591 285.375 153.25 C284.50294922 152.99178467 283.63089844 152.73356934 282.73242188 152.4675293 C261.26350262 145.93172319 240.71758493 135.80561496 223 122 C221.66388672 120.99646484 221.66388672 120.99646484 220.30078125 119.97265625 C189.56758236 96.0384311 170.17681072 63.53043216 158 27 C125.03721126 25.4964342 92.12572857 31.40499498 61.07739258 42.3215332 C50.48015072 46.02271306 50.48015072 46.02271306 46 46 C43.62890625 44.15625 43.62890625 44.15625 41.5625 41.5 C26.01044468 22.71228217 1.04642928 7.60795931 -23.14453125 3.4609375 C-28.57388435 3.15161903 -32.95703154 4.18116667 -36 9 Z " fill="#3C3B52" transform="translate(149,100)"/>
<path d="M0 0 C1.20269531 -0.09087891 1.20269531 -0.09087891 2.4296875 -0.18359375 C6.73742596 0.80905903 9.43797317 2.94991231 12.125 6.4375 C13.61245747 10.12522987 14.31907981 13.84221908 15 17.75 C15.19851563 18.74451172 15.39703125 19.73902344 15.6015625 20.76367188 C17.35080893 29.76401753 18.27823487 38.60090486 18.328125 47.765625 C18.33504868 48.62901993 18.34197235 49.49241486 18.34910583 50.38197327 C18.36628735 53.15052893 18.3726917 55.91889355 18.375 58.6875 C18.37633942 59.62991547 18.37767883 60.57233093 18.37905884 61.54330444 C18.37488786 75.03958436 18.04512626 88.20547374 15.125 101.4375 C14.98094727 102.09927246 14.83689453 102.76104492 14.68847656 103.44287109 C14.06495111 106.25721897 13.40664038 109.05524131 12.67578125 111.84375 C11.25198357 118.54872631 13.14990894 121.72151977 16.6875 127.3125 C28.29994904 146.31224521 28.29994904 146.31224521 30.125 155.4375 C25.6838404 156.5316193 21.32058986 156.61545153 16.7734375 156.640625 C15.95992828 156.64632507 15.14641907 156.65202515 14.30825806 156.65789795 C12.58182056 156.66733035 10.8553652 156.67387493 9.12890625 156.67773438 C6.55694292 156.68728847 3.98583327 156.71826199 1.4140625 156.75 C-13.87955287 156.84894971 -28.81656349 155.11842498 -43.5 150.6875 C-44.37205078 150.42928467 -45.24410156 150.17106934 -46.14257812 149.9050293 C-67.6132593 143.3686868 -88.1539584 133.24077919 -105.875 119.4375 C-106.75414062 118.78007812 -107.63328125 118.12265625 -108.5390625 117.4453125 C-123.35695562 105.94018098 -136.39683681 91.97193782 -146.875 76.4375 C-147.25301758 75.87756348 -147.63103516 75.31762695 -148.02050781 74.74072266 C-156.06493534 62.63048014 -162.1807463 49.66716142 -167.375 36.125 C-167.725625 35.21105469 -168.07625 34.29710937 -168.4375 33.35546875 C-170.875 26.82925907 -170.875 26.82925907 -170.875 23.4375 C-140.14046425 24.14566903 -109.54647287 29.50746203 -80.83129883 40.71044922 C-77.33606302 42.05859133 -74.6150575 42.84305708 -70.875 42.4375 C-68.87742166 41.06203305 -68.87742166 41.06203305 -67.16015625 39.0703125 C-66.48162598 38.35431885 -65.8030957 37.6383252 -65.10400391 36.90063477 C-64.38905762 36.12905029 -63.67411133 35.35746582 -62.9375 34.5625 C-47.03382366 18.10285806 -23.68498109 1.24856929 0 0 Z " fill="#8BC53F" transform="translate(477.875,103.5625)"/>
<path d="M0 0 C2.22021739 1.52850832 3.16921656 2.86358961 4.52148438 5.18652344 C4.988125 5.96568115 5.45476562 6.74483887 5.93554688 7.54760742 C6.42796875 8.38235596 6.92039062 9.21710449 7.42773438 10.07714844 C12.8564282 18.95643905 18.82474096 26.74129143 25.92773438 34.32714844 C26.40678223 34.84857422 26.88583008 35.37 27.37939453 35.90722656 C61.50609312 72.81718551 118.27594936 92.07709904 167.05444336 97.96264648 C169.13597466 98.22670683 171.21335594 98.52418178 173.28735352 98.84204102 C185.47371451 100.60518413 197.56806438 100.67913133 209.86523438 100.63964844 C210.94812744 100.63882263 212.03102051 100.63799683 213.14672852 100.637146 C231.22592381 100.6053659 248.8768862 99.9379531 266.55957031 95.86328125 C269.16746928 95.27287443 271.78416517 94.73946765 274.40429688 94.20605469 C327.32597691 83.07240065 379.68392468 59.40850392 410.60644531 13.38476562 C412.92061962 9.78094799 414.9317646 6.06393871 416.77929688 2.19824219 C417.92773438 0.32714844 417.92773438 0.32714844 420.92773438 -0.67285156 C422.97070312 -0.11425781 422.97070312 -0.11425781 425.11523438 0.76464844 C425.83066406 1.05210937 426.54609375 1.33957031 427.28320312 1.63574219 C427.82589844 1.86390625 428.36859375 2.09207031 428.92773438 2.32714844 C426.94075264 17.83083486 423.12186783 31.53056159 415.92773438 45.32714844 C415.40687256 46.3277832 415.40687256 46.3277832 414.87548828 47.34863281 C407.81930094 60.73029021 399.34128433 72.30815953 388.92773438 83.32714844 C387.73277344 84.63619141 387.73277344 84.63619141 386.51367188 85.97167969 C357.0813559 117.04900426 311.16463758 131.86175995 270.55126953 140.75 C268.32038786 141.24076906 266.09848822 141.75710993 263.87695312 142.28808594 C196.29481144 157.47339475 116.72172579 142.11054615 58.12304688 106.08105469 C29.0022135 87.43966739 9.00273043 60.36668189 -3.07226562 28.32714844 C-3.48476562 27.2559375 -3.89726563 26.18472656 -4.32226562 25.08105469 C-7.01418122 17.62880307 -8.18879567 10.1853812 -9.07226562 2.32714844 C-2.67855134 -0.86970871 -2.67855134 -0.86970871 0 0 Z " fill="#D9D9E9" transform="translate(91.072265625,355.6728515625)"/>
<path d="M0 0 C1.41345703 -0.01160156 1.41345703 -0.01160156 2.85546875 -0.0234375 C10.05021426 -0.00353502 17.08931265 0.2055575 23.1875 4.3125 C25.42629209 7.70679769 26.09358984 9.74153862 25.87109375 13.7734375 C23.91536896 20.26521507 17.87798652 25.47751543 12.1875 28.875 C9.125 30.25 9.125 30.25 7.125 30.25 C5.45794323 38.2727107 4.86275383 46.13573283 4.75 54.3125 C4.71132813 55.68668091 4.71132813 55.68668091 4.671875 57.08862305 C4.59375811 62.29342703 4.59375811 62.29342703 6.99609375 66.76171875 C7.69863281 67.25285156 8.40117187 67.74398437 9.125 68.25 C10.3315625 69.11625 10.3315625 69.11625 11.5625 70 C19.21869438 72.68638399 27.84694289 72.09789031 35.3828125 69.171875 C38.94936357 67.2846417 39.89417598 64.94247205 41.125 61.25 C43.435 61.25 45.745 61.25 48.125 61.25 C47.58955772 65.80125938 45.94778978 68.66429406 43.125 72.25 C37.96710526 76.25 37.96710526 76.25 34.125 76.25 C34.228125 77.343125 34.33125 78.43625 34.4375 79.5625 C34.40747808 88.04369126 29.61799352 95.54860166 23.9375 101.53515625 C17.16677453 107.9410797 10.09646777 111.28937725 0.6875 111.6875 C-9.05219621 111.33480905 -15.74721579 107.33575157 -22.6796875 100.6640625 C-27.61478747 95.2372088 -29.75488636 90.22244872 -31.125 83.0625 C-31.88340999 79.60362439 -32.29750087 77.78333094 -34.91796875 75.36328125 C-36.49181302 74.38508441 -38.08982223 73.44456098 -39.7109375 72.546875 C-42.96232556 70.59838973 -44.19133151 68.61733698 -45.875 65.25 C-45.875 63.93 -45.875 62.61 -45.875 61.25 C-43.565 61.25 -41.255 61.25 -38.875 61.25 C-38.483125 62.178125 -38.09125 63.10625 -37.6875 64.0625 C-35.70020108 67.55740499 -34.4858674 68.61651237 -30.875 70.25 C-21.7547659 72.42589342 -14.01048265 72.05117236 -5.73828125 67.5390625 C-3.73739468 66.3757222 -3.73739468 66.3757222 -2.875 64.25 C-2.63325008 60.9016621 -2.68979085 57.54358893 -2.6875 54.1875 C-2.66913086 52.81174805 -2.66913086 52.81174805 -2.65039062 51.40820312 C-2.63913398 46.11382801 -3.07905925 41.34716357 -4.4440918 36.22485352 C-4.875 34.25 -4.875 34.25 -4.875 30.25 C-5.679375 30.085 -6.48375 29.92 -7.3125 29.75 C-13.52431783 27.13449776 -19.28249039 22.00023983 -22.875 16.25 C-23.53644925 13.16874891 -23.45511907 10.34396837 -22.875 7.25 C-17.38081267 -0.57505468 -8.67499878 -0.07062414 0 0 Z " fill="#403D55" transform="translate(299.875,297.75)"/>
<path d="M0 0 C1.12535156 -0.020625 2.25070312 -0.04125 3.41015625 -0.0625 C17.04462953 -0.12554959 32.26508181 3.5211652 42.375 13.25 C46.00769838 17.51024481 48.22719373 21.54916256 47.78125 27.24609375 C46.33113104 34.39908439 42.6433933 38.50470862 36.8125 42.71484375 C33.15684854 45.01720116 29.41141741 46.73058812 25.375 48.25 C24.364375 48.641875 23.35375 49.03375 22.3125 49.4375 C7.52217748 53.52844027 -12.6031452 53.73712248 -26.625 47.25 C-27.6046875 46.81429687 -28.584375 46.37859375 -29.59375 45.9296875 C-35.89617967 42.82929871 -40.66032889 39.09726652 -44.625 33.25 C-46.29737193 28.2328842 -46.86591763 22.94496997 -44.6015625 18.02734375 C-37.87410301 8.38217393 -26.47149665 3.33584239 -15.29833984 0.70141602 C-10.23813509 -0.1530423 -5.11982918 0.02298464 0 0 Z " fill="#F390B2" transform="translate(433.625,316.75)"/>
<path d="M0 0 C1.02480469 0.35191406 2.04960937 0.70382812 3.10546875 1.06640625 C11.01087184 4.04198033 16.50248898 7.95600288 22 14.3125 C23.9593423 19.57823242 23.66664717 24.87506216 22 30.1875 C16.62943882 37.73985165 9.59180183 41.84029454 1 45 C0.29391602 45.26256592 -0.41216797 45.52513184 -1.13964844 45.7956543 C-7.99043807 48.12214282 -14.30581889 48.42150274 -21.5 48.3125 C-23.09521484 48.31733398 -23.09521484 48.31733398 -24.72265625 48.32226562 C-39.53275007 48.22232021 -53.54989031 44.83262208 -65 35 C-68.92747903 30.53223285 -70.39606996 26.01082579 -70.265625 20.04296875 C-69.4774901 13.98128414 -64.02212627 9.66838714 -59.61328125 5.89453125 C-43.97512884 -5.44254486 -17.79853259 -6.41365357 0 0 Z " fill="#F390B2" transform="translate(191,320)"/>
<path d="M0 0 C6.92928981 4.09300813 12.98685602 10.67064384 15.9296875 18.2265625 C18.23543762 28.55973895 17.90274129 39.24837123 12.47265625 48.50390625 C7.4829569 55.18745037 1.28664466 60.40551076 -6.8125 62.75 C-15.55317989 63.79055713 -22.3508072 62.64892913 -29.67578125 57.484375 C-37.94051164 50.57375298 -42.47565177 43.1678308 -43.7578125 32.36328125 C-44.16891699 22.75713961 -41.4787058 15.05420604 -35.3125 7.6875 C-25.75362378 -2.0575881 -13.04768332 -5.76993084 0 0 Z " fill="#3C3B53" transform="translate(408.4375,250.9375)"/>
<path d="M0 0 C7.7159868 5.53752058 13.33965172 13.0174021 15.14453125 22.5390625 C15.99541983 32.78245199 14.40687786 41.64769723 7.81640625 49.72265625 C1.09614053 57.02387952 -5.55235077 61.00489996 -15.54296875 61.8515625 C-24.0742596 61.67516363 -30.82442749 57.49102192 -36.875 51.76171875 C-44.31369441 43.41336151 -45.50069823 34.76789032 -45.25390625 23.94921875 C-44.73074538 15.31335411 -40.59794831 8.81791304 -34.41796875 2.9765625 C-24.4023645 -4.98625675 -11.42405991 -6.78244353 0 0 Z " fill="#3C3B53" transform="translate(221.85546875,252.4609375)"/>
<path d="M0 0 C2.86911151 2.71941873 5.06622405 5.46413151 7.25 8.75 C34.6261297 46.74136367 83.96294536 66.79890701 128 77 C129.58860945 77.38122805 131.17715424 77.76272572 132.765625 78.14453125 C140.37959698 79.9382231 148.02987291 81.42803953 155.75 82.6875 C156.82942871 82.86671997 156.82942871 82.86671997 157.93066406 83.04956055 C170.97572247 85.06829941 184.06559694 85.16070715 197.23144531 85.13037109 C199.99549848 85.12500873 202.75938922 85.13034998 205.5234375 85.13671875 C221.21825799 85.14586389 236.3101524 84.0430842 251.75 81.25 C252.49535004 81.11716614 253.24070007 80.98433228 254.00863647 80.84747314 C265.21097978 78.84272793 276.14182647 76.42577746 287 73 C288.01578125 72.72027344 289.0315625 72.44054687 290.078125 72.15234375 C327.17167377 61.71371419 363.21536316 43.06045211 389 14 C389.33 13.34 389.66 12.68 390 12 C390.66 12 391.32 12 392 12 C390.54835356 16.67464715 387.82060266 19.72519899 384.5 23.1875 C383.95883545 23.75847412 383.4176709 24.32944824 382.86010742 24.91772461 C381.75823958 26.07628123 380.65303851 27.23167738 379.54443359 28.38378906 C378.2038391 29.7866875 376.89036215 31.215403 375.58203125 32.6484375 C346.80624636 63.25675947 300.35058895 77.72858149 260.62353516 86.42285156 C258.39265348 86.91362062 256.17075385 87.42996149 253.94921875 87.9609375 C186.36707706 103.14624631 106.79399141 87.78339771 48.1953125 51.75390625 C29.02351181 39.48128488 10.98920208 22.08124549 0 2 C0 1.34 0 0.68 0 0 Z " fill="#F9F9FA" transform="translate(101,410)"/>
<path d="M0 0 C1.64453125 1.328125 1.64453125 1.328125 4.01953125 3.953125 C4.01953125 4.613125 4.01953125 5.273125 4.01953125 5.953125 C2.87291016 5.97439453 2.87291016 5.97439453 1.703125 5.99609375 C-29.11381544 7.36820783 -56.44285485 28.58102566 -76.98046875 49.953125 C-82.2639417 48.39507469 -87.52652946 46.78770347 -92.765625 45.0859375 C-119.24512901 36.55946133 -147.94568742 29.62048575 -175.98046875 30.953125 C-176.64046875 27.983125 -177.30046875 25.013125 -177.98046875 21.953125 C-147.245933 22.66129403 -116.65194162 28.02308703 -87.93676758 39.22607422 C-84.44153177 40.57421633 -81.72052625 41.35868208 -77.98046875 40.953125 C-75.98289041 39.57765805 -75.98289041 39.57765805 -74.265625 37.5859375 C-73.58709473 36.86994385 -72.90856445 36.1539502 -72.20947266 35.41625977 C-71.49452637 34.64467529 -70.77958008 33.87309082 -70.04296875 33.078125 C-56.83697052 19.41046743 -20.70685469 -10.94563522 0 0 Z " fill="#D0E085" transform="translate(484.98046875,105.046875)"/>
<path d="M0 0 C2.125 0.625 2.125 0.625 5 2 C6.5613807 2.69003826 8.1239656 3.37735571 9.6875 4.0625 C11.81281078 5.00906699 13.91906319 5.9595316 16 7 C18.0374763 7.22858114 20.08040303 7.41024278 22.125 7.5625 C23.76855469 7.68818359 23.76855469 7.68818359 25.4453125 7.81640625 C26.70988281 7.90728516 26.70988281 7.90728516 28 8 C28.33582503 15.23073269 25.92658837 20.65532758 21.16796875 26.09375 C14.06721075 32.70431761 7.52360015 34.57988694 -2.109375 34.27734375 C-10.09222263 33.51142188 -15.65483946 29.92589861 -21 24 C-24.5200502 18.92788156 -25.56506416 14.0891018 -26 8 C-24.64068359 7.85304688 -24.64068359 7.85304688 -23.25390625 7.703125 C-14.42112624 6.61888957 -7.41817295 4.94544864 0 0 Z " fill="#C13C3B" transform="translate(300,369)"/>
<path d="M0 0 C3.0220794 1.74450506 5.41651082 3.83302164 7 7 C7.35032356 12.34243433 7.4561069 15.64786539 4 20 C-0.00254616 22.66836411 -3.29313299 22.8340238 -8 22 C-10.75569447 19.81840855 -12.43588747 18.12822506 -14 15 C-14.35032356 9.65756567 -14.4561069 6.35213461 -11 2 C-7.3112362 -0.45917586 -4.2815571 -0.81591937 0 0 Z " fill="#FBFAFB" transform="translate(218,265)"/>
<path d="M0 0 C2.84124653 1.23532458 4.42097859 2.2555439 6.3125 4.6875 C7.34579439 8.16312659 7.57384972 11.44076542 7 15 C4 20.5 4 20.5 1 22 C-2.05940837 22.42074378 -4.9459708 22.47999423 -8 22 C-12.32744906 18.66425802 -13.71348759 16.12837789 -14.4375 10.75 C-13.92666408 6.37140643 -12.83533298 4.46728292 -9.84765625 1.32421875 C-6.44481577 -1.1146035 -4.08440503 -0.64831826 0 0 Z " fill="#FBFBFB" transform="translate(391,265)"/>
<path d="M0 0 C3.37223771 0.7782087 4.4947794 1.68439541 6.4375 4.5625 C7.07344926 8.07435313 7.06767266 11.30215469 5.4375 14.5625 C2.1788581 16.19182095 -1.00147344 16.08923518 -4.5625 15.5625 C-6.5625 14.5 -6.5625 14.5 -7.5625 12.5625 C-8.0625 9.1875 -8.0625 9.1875 -7.5625 5.5625 C-5.25052361 2.45784599 -3.81966828 0.83846377 0 0 Z " fill="#757585" transform="translate(405.5625,286.4375)"/>
<path d="M0 0 C3.4375 0.9375 3.4375 0.9375 5.375 2 C7.12793126 5.19652171 6.95530725 8.38682174 6.4375 11.9375 C5.4375 13.9375 5.4375 13.9375 3.4375 14.9375 C0.67660156 15.39189787 -1.80612052 15.44283624 -4.5625 14.9375 C-7.48031637 12.65795596 -7.54070387 11.11186907 -8 7.4375 C-7.5625 3.9375 -7.5625 3.9375 -6 1.4375 C-3.5625 -0.0625 -3.5625 -0.0625 0 0 Z " fill="#757585" transform="translate(197.5625,287.0625)"/>
<path d="M0 0 C-0.33 0.99 -0.66 1.98 -1 3 C-4.84586595 4.28195532 -8.49322597 4.18415545 -12.5 4.1875 C-13.65822266 4.20586914 -13.65822266 4.20586914 -14.83984375 4.22460938 C-18.7482648 4.23476991 -20.67641928 4.21572048 -24 2 C-23.67 1.01 -23.34 0.02 -23 -1 C-15.38009209 -4.71226283 -7.29092109 -3.80395883 0 0 Z " fill="#F2F1F3" transform="translate(313,305)"/>
<path d="M0 0 C0.33 0 0.66 0 1 0 C1.33 5.94 1.66 11.88 2 18 C-2.455 17.01 -2.455 17.01 -7 16 C-6.34 15.67 -5.68 15.34 -5 15 C-4.15879612 12.82464268 -4.15879612 12.82464268 -3.5 10.25 C-2.5080154 6.73525254 -1.45486821 3.35738818 0 0 Z " fill="#D8D8E7" transform="translate(520,330)"/>
<path d="M0 0 C3.15268314 4.72902471 5.52668153 9.20650322 5 15 C4.38125 15.12375 3.7625 15.2475 3.125 15.375 C0.80879168 15.87197356 0.80879168 15.87197356 -1 18 C-1.09706112 11.88514973 -0.77040851 6.06696699 0 0 Z " fill="#D2D1E1" transform="translate(81,330)"/>
<path d="M0 0 C10.55808656 -0.18451025 10.55808656 -0.18451025 15 1 C15 1.33 15 1.66 15 2 C13.86820312 2.13277344 12.73640625 2.26554687 11.5703125 2.40234375 C10.08851821 2.5805342 8.60674864 2.75893029 7.125 2.9375 C6.00544922 3.06801758 6.00544922 3.06801758 4.86328125 3.20117188 C0.8046769 3.63326063 0.8046769 3.63326063 -3 5 C-3 5.66 -3 6.32 -3 7 C-1.0399719 8.63676257 -1.0399719 8.63676257 1 10 C-0.65 9.67 -2.3 9.34 -4 9 C-4.33 7.35 -4.66 5.7 -5 4 C-3.35 3.34 -1.7 2.68 0 2 C0 1.34 0 0.68 0 0 Z " fill="#33334D" transform="translate(293,300)"/>
<path d="M0 0 C4.20240011 3.71750779 6.99782679 8.31660979 10 13 C9.01 13 8.02 13 7 13 C5.17578125 10.6640625 5.17578125 10.6640625 3.3125 7.625 C2.68988281 6.62726563 2.06726563 5.62953125 1.42578125 4.6015625 C0 2 0 2 0 0 Z " fill="#F0EFF2" transform="translate(101,410)"/>
<path d="M0 0 C1.95418308 2.93127462 2.64700993 4.55834679 3 8 C2.34 8.66 1.68 9.32 1 10 C0 9 0 9 -0.09765625 6.93359375 C-0.08605469 6.10988281 -0.07445313 5.28617187 -0.0625 4.4375 C-0.05347656 3.61121094 -0.04445313 2.78492188 -0.03515625 1.93359375 C-0.02355469 1.29550781 -0.01195313 0.65742188 0 0 Z " fill="#DADAEA" transform="translate(81,330)"/>
</svg>
