<?xml version="1.0" encoding="UTF-8" standalone="no"?>
<svg
   version="1.1"
   viewBox="0 0 150 150"
   id="svg21"
   width="150"
   height="150"
   xmlns="http://www.w3.org/2000/svg"
   xmlns:svg="http://www.w3.org/2000/svg">
  <defs
     id="defs21" />
  <g
     id="g21"
     transform="translate(-4.8139332,-11.766854)">
    <path
       d="m 41.813849,36.049385 c 3.94775,1.72895 10.26475,4.77975 12.25,8.75 1.29205,-0.33783 2.57725,-0.6934 3.8525,-1.08985 4.81,-1.4924 9.6405,-2.58475 14.6475,-3.16025 0.20273,-0.0239 0.40545,-0.0479 0.61433,-0.0725 2.1299,-0.2241 4.262,-0.23834 6.40125,-0.23999 0.19782,-1.7e-4 0.39565,-3.4e-4 0.59947,-5.1e-4 3.5865,0.005 7.09075,0.23492 10.635,0.813 0.2564,0.0416 0.5128,0.0831 0.77698,0.12597 3.6185,0.60958 7.086,1.5539 10.575501,2.68175 1.1244,0.36318 2.24712,0.6731 3.3975,0.94238 l 0.57812,-0.73438 c 1.08145,-1.25915 2.36393,-2.25222 3.672,-3.2655 0.32968,-0.2562 0.32968,-0.2562 0.66603,-0.51757 4.2815,-3.22075 9.82025,-6.27025 15.334,-5.7325 0.81022,0.28407 1.368,0.67557 2,1.25 0.13793,0.11247 0.27585,0.22494 0.41797,0.34082 3.10825,2.9775 3.01875,10.59825 3.11325,14.58975 0.0694,4.35825 -0.31315,8.59175 -1.20092,12.85975 -0.42385,2.0463 -0.40458,2.98625 0.76342,4.7875 1.54285,2.48118 2.598,5.1395 3.65975,7.8535 0.24908,0.62038 0.24908,0.62038 0.74658,1.31848 0.23449,-0.0846 0.46897,-0.16923 0.71057,-0.2564 0.87378,-0.31425 1.74913,-0.62393 2.625,-0.93225 0.3782,-0.13385 0.75598,-0.26893 1.1333,-0.40528 0.54378,-0.19625 1.08898,-0.38797 1.63465,-0.57892 0.16725,-0.0614 0.3345,-0.12289 0.50683,-0.18619 1.05967,-0.36465 1.8036,-0.418 2.88975,-0.14096 l 0.25,1.75 c -0.8557,0.74065 -1.78993,1.07427 -2.84775,1.4248 -0.17615,0.06 -0.3523,0.11995 -0.5338,0.18175 -0.55978,0.19016 -1.12038,0.37777 -1.68105,0.56532 -0.38093,0.1289 -0.76178,0.25798 -1.14258,0.3872 -0.931,0.31558 -1.86275,0.62885 -2.795,0.94093 0.0568,0.28552 0.0568,0.28552 0.11475,0.57685 0.17131,0.86477 0.3408,1.7299 0.51025,2.595 0.0596,0.29955 0.11924,0.5991 0.18066,0.90772 0.0564,0.28923 0.1128,0.57848 0.1709,0.87648 0.0524,0.26577 0.10474,0.53152 0.15869,0.80535 0.10564,0.67995 0.12325,1.30267 0.11475,1.98857 0.16746,-0.001 0.33492,-0.002 0.50747,-0.003 1.73973,-0.0111 3.4795,-0.0186 5.21925,-0.0241 0.64965,-0.003 1.29933,-0.006 1.94898,-0.0103 0.93267,-0.006 1.86532,-0.009 2.798,-0.0111 0.29142,-0.003 0.58285,-0.005 0.8831,-0.008 0.27022,-3e-5 0.54045,-7e-5 0.81885,-1.1e-4 0.23816,-10e-4 0.47632,-0.002 0.7217,-0.003 0.6027,0.0601 0.6027,0.0601 1.3527,0.56012 0.0937,0.875 0.0937,0.875 0,1.75 -0.83145,0.5543 -1.08403,0.56135 -2.05145,0.55678 -0.26523,-4e-5 -0.53043,-8e-5 -0.8037,-1.2e-4 -0.28595,-0.003 -0.57193,-0.005 -0.86653,-0.008 -0.29302,-7.1e-4 -0.58607,-0.001 -0.888,-0.002 -0.93742,-0.003 -1.8748,-0.009 -2.81225,-0.0154 -0.63492,-0.002 -1.26985,-0.005 -1.90477,-0.007 -1.55783,-0.005 -3.1155,-0.0149 -4.67325,-0.0244 v 8 c 2.09345,0.7087 2.09345,0.7087 4.18825,1.413405 0.26145,0.0895 0.52287,0.17898 0.79222,0.27118 0.26708,0.0903 0.53415,0.18067 0.80933,0.27375 0.6714,0.27575 1.15685,0.57762 1.7102,1.04167 l -0.25,1.75 c -1.17855,0.27735 -1.88528,0.20683 -3.01375,-0.21777 -0.27715,-0.10232 -0.5543,-0.20464 -0.83985,-0.31005 -0.4283,-0.16411 -0.4283,-0.16411 -0.86523,-0.33155 -0.29132,-0.10844 -0.58265,-0.21688 -0.8828,-0.32862 -0.71737,-0.26755 -1.4334,-0.5383 -2.14845,-0.812 -0.0631,0.3623 -0.0631,0.3623 -0.1275,0.73192 -0.98485,5.5205 -3.1215,10.6965 -6.3725,15.268 -0.0987,0.1393 -0.19747,0.2786 -0.2992,0.42213 -4.004,5.55525 -9.13875,9.7265 -15.20075,12.828 -0.19735,0.1024 -0.3947,0.2048 -0.59802,0.3103 -10.396,5.34725 -22.091251,8.0425 -33.752501,8.0185 -0.7996,-7.9e-4 -1.59898,0.005 -2.39855,0.0114 -4.8475,0.0151 -9.603,-0.502 -14.34475,-1.5122 -0.30033,-0.0634 -0.60068,-0.12673 -0.9101,-0.19202 -6.11475,-1.33687 -11.86775,-3.47825 -17.51175,-6.15175 -0.3836,-0.18091 -0.3836,-0.18091 -0.77498,-0.36547 -3.8885,-1.87853 -7.3305,-4.40225 -10.4595,-7.369 -0.23944,-0.22333 -0.47887,-0.44665 -0.72557,-0.67675 -1.93835,-1.84455 -3.535,-3.8535 -5.0245,-6.07325 -0.14931,-0.2217 -0.14931,-0.2217 -0.30163,-0.44788 -2.90325,-4.38575 -5.04225,-9.5665 -5.69825,-14.802 -0.18278,0.0695 -0.36557,0.13894 -0.5539,0.21051 -0.8298,0.3133 -1.66132,0.62175 -2.49297,0.93013 -0.28763,0.10941 -0.57525,0.21881 -0.87158,0.33155 -0.27795,0.10232 -0.5559,0.20463 -0.84227,0.31005 -0.2553,0.0956 -0.5106,0.19114 -0.77363,0.2896 -0.77712,0.19346 -1.2098,0.1771 -1.96562,-0.0718 -0.5,-0.5 -0.5,-0.5 -0.59375,-1.10938 0.0937,-0.64062 0.0937,-0.64062 0.50465,-1.02032 0.6841,-0.43 1.34312,-0.6768 2.10865,-0.93573 0.39215,-0.13423 0.39215,-0.13423 0.79222,-0.27117 0.49538,-0.16596 0.49538,-0.16596 1.00073,-0.335285 l 3.1875,-1.07812 v -8 c -0.94778,0.009 -1.89558,0.0174 -2.872,0.0264 -0.9159,0.006 -1.83183,0.0104 -2.74775,0.0148 -0.63755,0.004 -1.27508,0.009 -1.9126,0.0154 -0.91533,0.009 -1.83055,0.0134 -2.746,0.0167 -0.28595,0.004 -0.57193,0.008 -0.86653,0.0117 -0.39782,9e-5 -0.39782,9e-5 -0.8037,1.7e-4 -0.3505697,0.002 -0.3505697,0.002 -0.7082497,0.005 -0.5932,-0.0902 -0.5932,-0.0902 -1.0437,-0.42265 -0.4628,-0.64515 -0.3976,-1.14923 -0.29952,-1.91753 0.83655,-0.5577 1.09897,-0.5613 2.0743997,-0.55677 0.27022,4e-5 0.54045,8e-5 0.81885,1.1e-4 0.43715,0.004 0.43715,0.004 0.8831,0.008 0.29857,7.1e-4 0.59717,0.001 0.9048,0.002 0.95525,0.003 1.91045,0.009 2.86575,0.0154 0.64697,0.003 1.29395,0.005 1.94092,0.007 1.58743,0.006 3.17475,0.0139 4.76225,0.0244 0.0274,-0.24524 0.0548,-0.4905 0.083,-0.74317 0.27447,-2.36578 0.66515,-4.67825 1.167,-7.00675 -0.25488,-0.0883 -0.50975,-0.17652 -0.77235,-0.26745 -0.94445,-0.32748 -1.8882,-0.65685 -2.83175,-0.98683 -0.40868,-0.14261 -0.81753,-0.2847 -1.22655,-0.42627 -0.58753,-0.20344 -1.17438,-0.40873 -1.7611,-0.61438 -0.27503,-0.0946 -0.27503,-0.0946 -0.5556,-0.19103 -1.29568,-0.4571 -1.29568,-0.4571 -1.8526,-1.01405 0.0937,-0.90625 0.0937,-0.90625 0.25,-1.75 1.29535,-0.3322 2.2245,-0.10924 3.45125,0.32715 0.18099,0.0614 0.362,0.12278 0.54847,0.18604 0.57418,0.19557 1.1466,0.39577 1.7191,0.5962 0.39053,0.13394 0.78115,0.26757 1.17188,0.40087 0.95437,0.32638 1.90722,0.65693 2.8595,0.98975 0.16435,-0.44135 0.16435,-0.44135 0.33202,-0.8916 3.20225,-8.39275 3.20225,-8.39275 4.918,-10.1085 -0.0132,-1.45612 -0.32165,-2.89125 -0.60937,-4.3125 -1.3482,-6.8525 -1.1714,-13.91525 0.0781,-20.7655 0.0373,-0.21023 0.0746,-0.42047 0.11304,-0.63707 0.36483,-1.86398 0.87978,-3.79025 2.41823,-5.01925 0.165,-0.13632 0.33,-0.27263 0.5,-0.41308 2.8735,-2.02607 6.568,-0.5733 9.5,0.64745 z"
       fill="#fefefe"
       id="path1"
       style="stroke-width:0.25" />
    <path
       d="m 41.813849,36.049385 c 3.94775,1.72895 10.26475,4.77975 12.25,8.75 1.29205,-0.33783 2.57725,-0.6934 3.8525,-1.08985 4.81,-1.4924 9.6405,-2.58475 14.6475,-3.16025 0.20273,-0.0239 0.40545,-0.0479 0.61433,-0.0725 2.1299,-0.2241 4.262,-0.23834 6.40125,-0.23999 0.19782,-1.7e-4 0.39565,-3.4e-4 0.59947,-5.1e-4 3.5865,0.005 7.09075,0.23492 10.635,0.813 0.2564,0.0416 0.5128,0.0831 0.77698,0.12597 3.6185,0.60958 7.086,1.5539 10.575501,2.68175 1.1244,0.36318 2.24712,0.6731 3.3975,0.94238 l 0.57812,-0.73438 c 1.08145,-1.25915 2.36393,-2.25222 3.672,-3.2655 0.32968,-0.2562 0.32968,-0.2562 0.66603,-0.51757 4.2815,-3.22075 9.82025,-6.27025 15.334,-5.7325 0.81022,0.28407 1.368,0.67557 2,1.25 0.13793,0.11247 0.27585,0.22494 0.41797,0.34082 3.10825,2.9775 3.01875,10.59825 3.11325,14.58975 0.0694,4.35825 -0.31315,8.59175 -1.20092,12.85975 -0.42385,2.0463 -0.40458,2.98625 0.76342,4.7875 1.54285,2.48118 2.598,5.1395 3.65975,7.8535 0.24908,0.62038 0.24908,0.62038 0.74658,1.31848 0.23449,-0.0846 0.46897,-0.16923 0.71057,-0.2564 0.87378,-0.31425 1.74913,-0.62393 2.625,-0.93225 0.3782,-0.13385 0.75598,-0.26893 1.1333,-0.40528 0.54378,-0.19625 1.08898,-0.38797 1.63465,-0.57892 0.16725,-0.0614 0.3345,-0.12289 0.50683,-0.18619 1.05967,-0.36465 1.8036,-0.418 2.88975,-0.14096 l 0.25,1.75 c -0.8557,0.74065 -1.78993,1.07427 -2.84775,1.4248 -0.17615,0.06 -0.3523,0.11995 -0.5338,0.18175 -0.55978,0.19016 -1.12038,0.37777 -1.68105,0.56532 -0.38093,0.1289 -0.76178,0.25798 -1.14258,0.3872 -0.931,0.31558 -1.86275,0.62885 -2.795,0.94093 0.0568,0.28552 0.0568,0.28552 0.11475,0.57685 0.17131,0.86477 0.3408,1.7299 0.51025,2.595 0.0596,0.29955 0.11924,0.5991 0.18066,0.90772 0.0564,0.28923 0.1128,0.57848 0.1709,0.87648 0.0524,0.26577 0.10474,0.53152 0.15869,0.80535 0.10564,0.67995 0.12325,1.30267 0.11475,1.98857 0.16746,-0.001 0.33492,-0.002 0.50747,-0.003 1.73973,-0.0111 3.4795,-0.0186 5.21925,-0.0241 0.64965,-0.003 1.29933,-0.006 1.94898,-0.0103 0.93267,-0.006 1.86532,-0.009 2.798,-0.0111 0.29142,-0.003 0.58285,-0.005 0.8831,-0.008 0.27022,-3e-5 0.54045,-7e-5 0.81885,-1.1e-4 0.23816,-10e-4 0.47632,-0.002 0.7217,-0.003 0.6027,0.0601 0.6027,0.0601 1.3527,0.56012 0.0937,0.875 0.0937,0.875 0,1.75 -0.83145,0.5543 -1.08403,0.56135 -2.05145,0.55678 -0.26523,-4e-5 -0.53043,-8e-5 -0.8037,-1.2e-4 -0.28595,-0.003 -0.57193,-0.005 -0.86653,-0.008 -0.29302,-7.1e-4 -0.58607,-0.001 -0.888,-0.002 -0.93742,-0.003 -1.8748,-0.009 -2.81225,-0.0154 -0.63492,-0.002 -1.26985,-0.005 -1.90477,-0.007 -1.55783,-0.005 -3.1155,-0.0149 -4.67325,-0.0244 v 8 c 2.09345,0.7087 2.09345,0.7087 4.18825,1.413405 0.26145,0.0895 0.52287,0.17898 0.79222,0.27118 0.26708,0.0903 0.53415,0.18067 0.80933,0.27375 0.6714,0.27575 1.15685,0.57762 1.7102,1.04167 l -0.25,1.75 c -1.17855,0.27735 -1.88528,0.20683 -3.01375,-0.21777 -0.27715,-0.10232 -0.5543,-0.20464 -0.83985,-0.31005 -0.4283,-0.16411 -0.4283,-0.16411 -0.86523,-0.33155 -0.29132,-0.10844 -0.58265,-0.21688 -0.8828,-0.32862 -0.71737,-0.26755 -1.4334,-0.5383 -2.14845,-0.812 -0.0631,0.3623 -0.0631,0.3623 -0.1275,0.73192 -0.98485,5.5205 -3.1215,10.6965 -6.3725,15.268 -0.0987,0.1393 -0.19747,0.2786 -0.2992,0.42213 -4.004,5.55525 -9.13875,9.7265 -15.20075,12.828 -0.19735,0.1024 -0.3947,0.2048 -0.59802,0.3103 -10.396,5.34725 -22.091251,8.0425 -33.752501,8.0185 -0.7996,-7.9e-4 -1.59898,0.005 -2.39855,0.0114 -4.8475,0.0151 -9.603,-0.502 -14.34475,-1.5122 -0.30033,-0.0634 -0.60068,-0.12673 -0.9101,-0.19202 -6.11475,-1.33687 -11.86775,-3.47825 -17.51175,-6.15175 -0.3836,-0.18091 -0.3836,-0.18091 -0.77498,-0.36547 -3.8885,-1.87853 -7.3305,-4.40225 -10.4595,-7.369 -0.23944,-0.22333 -0.47887,-0.44665 -0.72557,-0.67675 -1.93835,-1.84455 -3.535,-3.8535 -5.0245,-6.07325 -0.14931,-0.2217 -0.14931,-0.2217 -0.30163,-0.44788 -2.90325,-4.38575 -5.04225,-9.5665 -5.69825,-14.802 -0.18278,0.0695 -0.36557,0.13894 -0.5539,0.21051 -0.8298,0.3133 -1.66132,0.62175 -2.49297,0.93013 -0.28763,0.10941 -0.57525,0.21881 -0.87158,0.33155 -0.27795,0.10232 -0.5559,0.20463 -0.84227,0.31005 -0.2553,0.0956 -0.5106,0.19114 -0.77363,0.2896 -0.77712,0.19346 -1.2098,0.1771 -1.96562,-0.0718 -0.5,-0.5 -0.5,-0.5 -0.59375,-1.10938 0.0937,-0.64062 0.0937,-0.64062 0.50465,-1.02032 0.6841,-0.43 1.34312,-0.6768 2.10865,-0.93573 0.39215,-0.13423 0.39215,-0.13423 0.79222,-0.27117 0.49538,-0.16596 0.49538,-0.16596 1.00073,-0.335285 l 3.1875,-1.07812 v -8 c -0.94778,0.009 -1.89558,0.0174 -2.872,0.0264 -0.9159,0.006 -1.83183,0.0104 -2.74775,0.0148 -0.63755,0.004 -1.27508,0.009 -1.9126,0.0154 -0.91533,0.009 -1.83055,0.0134 -2.746,0.0167 -0.28595,0.004 -0.57193,0.008 -0.86653,0.0117 -0.39782,9e-5 -0.39782,9e-5 -0.8037,1.7e-4 -0.3505697,0.002 -0.3505697,0.002 -0.7082497,0.005 -0.5932,-0.0902 -0.5932,-0.0902 -1.0437,-0.42265 -0.4628,-0.64515 -0.3976,-1.14923 -0.29952,-1.91753 0.83655,-0.5577 1.09897,-0.5613 2.0743997,-0.55677 0.27022,4e-5 0.54045,8e-5 0.81885,1.1e-4 0.43715,0.004 0.43715,0.004 0.8831,0.008 0.29857,7.1e-4 0.59717,0.001 0.9048,0.002 0.95525,0.003 1.91045,0.009 2.86575,0.0154 0.64697,0.003 1.29395,0.005 1.94092,0.007 1.58743,0.006 3.17475,0.0139 4.76225,0.0244 0.0274,-0.24524 0.0548,-0.4905 0.083,-0.74317 0.27447,-2.36578 0.66515,-4.67825 1.167,-7.00675 -0.25488,-0.0883 -0.50975,-0.17652 -0.77235,-0.26745 -0.94445,-0.32748 -1.8882,-0.65685 -2.83175,-0.98683 -0.40868,-0.14261 -0.81753,-0.2847 -1.22655,-0.42627 -0.58753,-0.20344 -1.17438,-0.40873 -1.7611,-0.61438 -0.27503,-0.0946 -0.27503,-0.0946 -0.5556,-0.19103 -1.29568,-0.4571 -1.29568,-0.4571 -1.8526,-1.01405 0.0937,-0.90625 0.0937,-0.90625 0.25,-1.75 1.29535,-0.3322 2.2245,-0.10924 3.45125,0.32715 0.18099,0.0614 0.362,0.12278 0.54847,0.18604 0.57418,0.19557 1.1466,0.39577 1.7191,0.5962 0.39053,0.13394 0.78115,0.26757 1.17188,0.40087 0.95437,0.32638 1.90722,0.65693 2.8595,0.98975 0.16435,-0.44135 0.16435,-0.44135 0.33202,-0.8916 3.20225,-8.39275 3.20225,-8.39275 4.918,-10.1085 -0.0132,-1.45612 -0.32165,-2.89125 -0.60937,-4.3125 -1.3482,-6.8525 -1.1714,-13.91525 0.0781,-20.7655 0.0373,-0.21023 0.0746,-0.42047 0.11304,-0.63707 0.36483,-1.86398 0.87978,-3.79025 2.41823,-5.01925 0.165,-0.13632 0.33,-0.27263 0.5,-0.41308 2.8735,-2.02607 6.568,-0.5733 9.5,0.64745 z m -9,2.25 c -0.4789,1.13432 -0.75132,2.29825 -1,3.5 -0.0377,0.17108 -0.0755,0.34217 -0.11438,0.51842 -1.47065,6.9565 -1.41272,15.818 0.7511,22.6065 0.28813,1.5896 -0.26027,2.728 -1.1211,4.0155 -1.52582,2.40125 -2.65125,4.99725 -3.7655,7.6095 -0.0931,0.21024 -0.18631,0.42048 -0.2823,0.63708 -0.2735,0.66155 -0.2735,0.66155 -0.21771,1.61292 0.27068,0.10028 0.27068,0.10028 0.54683,0.20258 0.81277,0.30155 1.62517,0.60417 2.43755,0.9068 0.28407,0.10522 0.56815,0.21044 0.86085,0.31885 0.2699,0.1007 0.5398,0.20141 0.81787,0.30517 0.25005,0.0929 0.50013,0.18591 0.75775,0.28168 0.57918,0.23492 0.57918,0.23492 0.82918,0.48492 0.0312,0.625 0.0312,0.625 0,1.25 -0.25,0.25 -0.25,0.25 -0.85548,0.3203 -1.2388,-0.0974 -2.29865,-0.513 -3.457,-0.9453 -0.44897,-0.16471 -0.8982,-0.3288 -1.34765,-0.4922 -0.19731,-0.0733 -0.39462,-0.14663 -0.5979,-0.22217 -0.4849,-0.18651 -0.4849,-0.18651 -0.99195,-0.16064 -0.21039,0.97352 -0.41795,1.94762 -0.625,2.922 -0.0596,0.2757 -0.11924,0.5514 -0.18066,0.83545 -0.0564,0.26667 -0.1128,0.53335 -0.1709,0.8081 -0.0524,0.24482 -0.10474,0.48965 -0.15869,0.74187 -0.10976,0.66258 -0.13614,1.27268 -0.11475,1.9427 0.22523,0.009 0.22523,0.009 0.45503,0.019 0.6765,0.0289 1.35292,0.0596 2.02935,0.0904 0.23638,0.01 0.47277,0.0197 0.7163,0.0298 0.22478,0.0105 0.44955,0.0209 0.68115,0.0317 0.31225,0.0138 0.31225,0.0138 0.6308,0.0278 0.48737,0.0513 0.48737,0.0513 0.73737,0.30133 0.0312,0.625 0.0312,0.625 0,1.25 -0.40445,0.40445 -0.8641,0.30567 -1.42285,0.3291 -0.21255,0.01 -0.4251,0.019 -0.6441,0.0289 -0.2718,0.0108 -0.54362,0.0215 -0.82367,0.0326 l -2.6095,0.10938 v 7.5 c 1.8874,-0.51475 3.67725,-1.05753 5.49175,-1.75343 1.0377,-0.3823 1.88335,-0.60167 3.00825,-0.49657 0.25,0.25 0.25,0.25 0.26562,0.89062 l -0.0156,0.60938 c -1.96068,0.92802 -3.982,1.60622 -6.044,2.27197 -0.24847,0.0833 -0.49693,0.16661 -0.75293,0.25245 -0.22526,0.0735 -0.45052,0.14699 -0.68262,0.222725 -0.17177,0.0834 -0.34353,0.16689 -0.5205,0.25287 -1.12765,3.383 1.9516,8.9645 3.459,11.99125 5.30575,10.16825 14.47125,15.6475 24.791,19.75875 0.25662,0.10472 0.25662,0.10472 0.51842,0.21155 3.96475,1.61023 8.2925,2.54775 12.4815,3.3665 0.27653,0.0551 0.27653,0.0551 0.55865,0.11139 3.97275,0.73255 7.95825,0.8972 11.98825,0.87298 0.23499,-8.6e-4 0.46998,-0.002 0.71208,-0.003 5.74125,-0.0245 11.146,-0.46887 16.741,-1.8099 0.36707,-0.0871 0.36707,-0.0871 0.74157,-0.17602 9.546251,-2.29618 19.042501,-5.9925 26.257501,-12.824 0.22108,-0.20496 0.44215,-0.40993 0.66993,-0.6211 2.85325,-2.732 5.00325,-5.90575 6.82725,-9.3965 0.23718,-0.4525 0.48252,-0.90068 0.7284,-1.3485 1.48442,-2.88775 2.7745,-6.61875 2.7745,-9.88375 -0.17886,-0.0629 -0.35773,-0.12585 -0.542,-0.19068 -0.81983,-0.28927 -1.6389,-0.580525 -2.458,-0.871825 -0.28135,-0.0989 -0.56268,-0.19787 -0.85255,-0.2998 -1.52405,-0.54368 -2.96975,-1.12493 -4.3975,-1.8877 -0.0107,-0.41653 -0.0102,-0.83345 0,-1.25 l 0.25,-0.25 c 1.8011,0.10054 3.4005,0.67427 5.09375,1.26562 0.5382,0.18586 1.0766,0.3711 1.61522,0.55568 0.35403,0.1233 0.35403,0.1233 0.7152,0.24908 0.55483,0.20445 0.55483,0.20445 1.0758,0.17963 v -7.5 c -1.71647,-0.0723 -1.71647,-0.0723 -3.433,-0.14203 -0.21255,-0.01 -0.4251,-0.019 -0.6441,-0.0289 -0.21864,-0.009 -0.43727,-0.0183 -0.66252,-0.0278 -0.51033,-0.0513 -0.51033,-0.0513 -0.76033,-0.30132 -0.0312,-0.625 -0.0312,-0.625 0,-1.25 0.396,-0.396 0.8193,-0.30493 1.36818,-0.3291 0.33717,-0.0157 0.33717,-0.0157 0.68115,-0.0317 0.23638,-0.01 0.47277,-0.0197 0.7163,-0.0298 0.23734,-0.0108 0.4747,-0.0216 0.71925,-0.0327 0.58835,-0.0266 1.1767,-0.0521 1.76512,-0.0767 -0.26907,-2.466 -0.63185,-4.84325 -1.25,-7.25 -1.76485,0.40657 -3.4505,0.88052 -5.13175,1.55762 -0.66095,0.2057 -1.18005,0.24624 -1.86817,0.19239 -0.25,-0.25 -0.25,-0.25 -0.34375,-0.84375 0.0937,-0.65625 0.0937,-0.65625 0.56347,-1.01465 1.08515,-0.54463 2.20975,-0.92465 3.3585,-1.31348 0.23284,-0.0801 0.46568,-0.16016 0.70558,-0.24267 0.57167,-0.19643 1.14377,-0.39153 1.7163,-0.58545 -0.0709,-0.35978 -0.14431,-0.71908 -0.21875,-1.07813 -0.0406,-0.20013 -0.0812,-0.40025 -0.12305,-0.60645 -0.1444,-0.62867 -0.1444,-0.62867 -0.6582,-1.31542 -0.77968,-0.0576 -1.50958,-0.0686 -2.28808,-0.0469 -0.23218,0.003 -0.46437,0.006 -0.70357,0.009 -0.9927,0.0122 -1.98518,0.0329 -2.97775,0.0537 -4.27025,0.0817 -8.32725,-0.2128 -12.43675,-1.45288 -0.21801,-0.0645 -0.43603,-0.1291 -0.66065,-0.19561 -5.36725,-1.63395 -10.50375,-4.1655 -14.933001,-7.617 -0.33403,-0.25088 -0.33403,-0.25088 -0.6748,-0.50683 -7.68325,-5.9835 -12.531,-14.1105 -15.57525,-23.24325 -8.24075,-0.3759 -16.4685,1.10125 -24.23075,3.8305 -2.64925,0.9253 -2.64925,0.9253 -3.76925,0.91963 -0.59278,-0.46095 -0.59278,-0.46095 -1.10938,-1.125 -3.888,-4.697 -10.129,-8.473 -16.17675,-9.50975 -1.35735,-0.0773 -2.45312,0.18005 -3.21375,1.38477 z"
       fill="#3c3b52"
       id="path2"
       style="stroke-width:0.25" />
    <path
       d="m 124.03385,36.939385 c 0.30068,-0.0227 0.30068,-0.0227 0.60743,-0.0459 1.07692,0.24816 1.75207,0.78337 2.42382,1.65527 0.37188,0.92193 0.54853,1.85118 0.71875,2.828 0.0496,0.24863 0.0993,0.49725 0.15039,0.75343 0.4373,2.25007 0.66918,4.45925 0.68165,6.7505 0.002,0.21585 0.003,0.4317 0.005,0.65407 0.004,0.69215 0.006,1.38423 0.006,2.07638 3.4e-4,0.2356 6.7e-4,0.4712 0.001,0.71395 -0.001,3.374 -0.0835,6.6655 -0.81353,9.9735 -0.036,0.16544 -0.072,0.33087 -0.10913,0.50135 -0.15588,0.70357 -0.32045,1.4031 -0.50317,2.10022 -0.35595,1.67625 0.11853,2.46945 1.00292,3.86725 2.903,4.75 2.903,4.75 3.3595,7.03125 -1.1103,0.27353 -2.2011,0.2945 -3.338,0.30078 -0.20338,0.001 -0.40675,0.003 -0.6163,0.004 -0.4316,0.002 -0.86322,0.004 -1.29485,0.005 -0.643,0.002 -1.28577,0.0101 -1.9287,0.0181 -3.8235,0.0247 -7.55775,-0.4079 -11.2285,-1.51562 -0.21801,-0.0646 -0.43602,-0.12911 -0.66065,-0.19562 -5.36775,-1.63407 -10.50275,-4.166 -14.933001,-7.617 -0.21978,-0.16435 -0.43957,-0.3287 -0.66602,-0.49805 -3.7045,-2.87625 -6.9645,-6.36825 -9.584,-10.252 -0.0945,-0.13998 -0.18901,-0.27997 -0.28638,-0.4242 -2.0111,-3.0275 -3.54,-6.2685 -4.8385,-9.654 -0.0876,-0.22849 -0.17531,-0.45697 -0.26562,-0.69237 -0.60938,-1.63155 -0.60938,-1.63155 -0.60938,-2.4795 7.68375,0.17704 15.33225,1.5175 22.511001,4.31825 0.8738,0.33702 1.55405,0.53315 2.48908,0.43177 0.4994,-0.34387 0.4994,-0.34387 0.9287,-0.8418 0.16963,-0.179 0.33927,-0.358 0.51405,-0.54242 0.17873,-0.1929 0.35747,-0.3858 0.54162,-0.58453 3.976,-4.115 9.81325,-8.3285 15.7345,-8.6405 z"
       fill="#8bc53f"
       id="path3"
       style="stroke-width:0.25" />
    <path
       d="m 27.331849,99.966885 c 0.55505,0.382125 0.7923,0.715905 1.13038,1.296625 0.11666,0.19479 0.23332,0.38958 0.35352,0.59028 0.12311,0.20868 0.24621,0.41737 0.37305,0.63237 1.35718,2.21983 2.84925,4.166 4.625,6.0625 0.11977,0.13036 0.23953,0.26073 0.36293,0.39503 8.53175,9.2275 22.72425,14.0425 34.92,15.51375 0.52037,0.066 1.03972,0.14038 1.55822,0.21984 3.0465,0.44078 6.07025,0.45928 9.1445,0.4494 0.27073,-2e-4 0.54145,-4.1e-4 0.82038,-6.2e-4 4.51975,-0.008 8.9325,-0.1748 13.35325,-1.19348 0.65197,-0.1476 1.30615,-0.28095 1.96117,-0.4143 13.230501,-2.7835 26.320001,-8.6995 34.050001,-20.20525 0.57855,-0.90095 1.08133,-1.8302 1.54323,-2.79675 0.2871,-0.46777 0.2871,-0.46777 1.0371,-0.717775 0.51075,0.13965 0.51075,0.13965 1.04687,0.359375 0.17886,0.0719 0.35773,0.14373 0.542,0.21778 0.13568,0.057 0.27135,0.11408 0.41113,0.17285 -0.49675,3.876 -1.45148,7.30075 -3.25,10.75 -0.13022,0.25015 -0.13022,0.25015 -0.26305,0.50537 -1.76405,3.3455 -3.8835,6.24 -6.487,8.99475 -0.29875,0.32725 -0.29875,0.32725 -0.60353,0.66113 -7.358,7.76925 -18.83725,11.4725 -28.990001,13.6945 -0.55772,0.12269 -1.1132,0.25177 -1.66857,0.38452 -16.8955,3.79625 -36.79,-0.0444 -51.4375,-9.05175 -7.28025,-4.66025 -12.28,-11.4285 -15.29875,-19.4385 -0.10313,-0.2678 -0.20625,-0.5356 -0.3125,-0.81152 -0.67298,-1.86308 -0.96663,-3.724 -1.1875,-5.6885 1.59842,-0.799235 1.59842,-0.799235 2.26807,-0.581785 z"
       fill="#d9d9e9"
       id="path4"
       style="stroke-width:0.25" />
    <path
       d="m 112.96885,90.236885 c 0.28135,-0.005 0.56268,-0.0103 0.85255,-0.0156 3.4085,-0.0158 7.21375,0.89593 9.74125,3.328 0.90818,1.06505 1.46305,2.0748 1.35155,3.499 -0.36252,1.78825 -1.28447,2.81475 -2.74225,3.867255 -0.91392,0.5756 -1.85027,1.00393 -2.8595,1.3838 l -0.76562,0.29688 c -3.6975,1.02272 -8.729,1.0749 -12.2345,-0.54688 -0.24492,-0.10892 -0.48985,-0.21785 -0.7422,-0.33007 -1.5756,-0.7751 -2.76675,-1.7081 -3.75775,-3.170005 -0.4181,-1.25428 -0.56023,-2.57625 0.006,-3.80575 1.68187,-2.4113 4.5325,-3.673 7.32575,-4.3315 1.26505,-0.21362 2.54475,-0.16961 3.8245,-0.17536 z"
       fill="#f390b2"
       id="path5"
       style="stroke-width:0.25" />
    <path
       d="m 52.313849,91.049385 c 0.2562,0.088 0.5124,0.17595 0.77638,0.2666 1.97635,0.7439 3.34925,1.7224 4.72375,3.3115 0.48982,1.31642 0.41665,2.64075 0,3.96875 -1.34265,1.888105 -3.102,2.913255 -5.25,3.703005 -0.17652,0.0656 -0.35305,0.13128 -0.5349,0.19891 -1.7127,0.58162 -3.2915,0.65645 -5.09,0.6292 -0.3988,10e-4 -0.3988,10e-4 -0.80568,0.002 -3.7025,-0.025 -7.20675,-0.8724 -10.06925,-3.330505 -0.98187,-1.11695 -1.34902,-2.2473 -1.3164,-3.73925 0.19704,-1.51542 1.56088,-2.59375 2.663,-3.537 3.9095,-2.83425 10.45375,-3.077 14.90325,-1.47362 z"
       fill="#f390b2"
       id="path6"
       style="stroke-width:0.25" />
    <path
       d="m 106.67385,73.784385 c 1.73233,1.02325 3.24675,2.66775 3.9825,4.55675 0.57645,2.58325 0.49328,5.2555 -0.86425,7.56925 -1.24742,1.67087 -2.7965,2.9755 -4.82125,3.5615 -2.18517,0.26015 -3.8845,-0.0253 -5.715751,-1.3164 -2.06617,-1.72765 -3.2,-3.57925 -3.5205,-6.28025 -0.10277,-2.40153 0.56978,-4.32725 2.11133,-6.169 2.389721,-2.43628 5.566251,-3.36425 8.828001,-1.92188 z"
       fill="#3c3b53"
       id="path7"
       style="stroke-width:0.25" />
    <path
       d="m 60.028849,74.164385 c 1.929,1.38437 3.335,3.25425 3.78625,5.63475 0.21273,2.56075 -0.18441,4.77725 -1.83202,6.796 -1.68008,1.8253 -3.34225,2.8205 -5.83975,3.03225 -2.13283,-0.0441 -3.82025,-1.09013 -5.333,-2.5225 -1.85968,-2.0871 -2.15643,-4.2485 -2.09473,-6.953 0.13079,-2.15898 1.164,-3.78275 2.709,-5.24325 2.504,-1.9907 5.7485,-2.43975 8.6045,-0.74415 z"
       fill="#3c3b53"
       id="path8"
       style="stroke-width:0.25" />
    <path
       d="m 29.813849,113.54939 c 0.71728,0.67985 1.26655,1.36602 1.8125,2.1875 6.844,9.49775 19.17825,14.51225 30.1875,17.0625 0.39715,0.0953 0.7943,0.19068 1.1914,0.28612 1.9035,0.44843 3.816,0.82088 5.746,1.13575 0.26985,0.0448 0.26985,0.0448 0.54518,0.0905 3.26125,0.50467 6.53375,0.52777 9.82525,0.5202 0.69102,-0.001 1.38197,-1e-5 2.073,0.002 3.92375,0.002 7.69675,-0.2734 11.55675,-0.97167 0.18634,-0.0332 0.37267,-0.0664 0.56465,-0.10063 2.8005,-0.50118 5.53325,-1.10543 8.247751,-1.96188 0.25395,-0.0699 0.5079,-0.13986 0.76952,-0.21191 9.2735,-2.60975 18.28425,-7.273 24.7305,-14.538 l 0.25,-0.5 h 0.5 c -0.3629,1.16865 -1.04485,1.9313 -1.875,2.797 -0.13529,0.14274 -0.27057,0.28547 -0.40997,0.43255 -0.27548,0.28965 -0.55178,0.5785 -0.82893,0.86652 -0.33515,0.35073 -0.66352,0.7079 -0.9906,1.06615 -7.194,7.652 -18.80775,11.27 -28.740001,13.4435 -0.55772,0.12269 -1.1132,0.25178 -1.66857,0.38453 -16.8955,3.79625 -36.79,-0.0444 -51.4375,-9.05175 -4.793,-3.06825 -9.3015,-7.41825 -12.04875,-12.4385 v -0.5 z"
       fill="#f9f9fa"
       id="path9"
       style="stroke-width:0.25" />
    <path
       d="m 79.533849,85.486885 c 0.35338,-0.003 0.35338,-0.003 0.71388,-0.006 1.79867,0.005 3.5585,0.0573 5.083,1.08397 0.5597,0.84858 0.72652,1.35725 0.6709,2.36523 -0.48893,1.62295 -1.99828,2.926 -3.421,3.7755 -0.76563,0.34375 -0.76563,0.34375 -1.26563,0.34375 -0.41677,2.00567 -0.56555,3.9715 -0.59375,6.0155 -0.01,0.34355 -0.01,0.34355 -0.0195,0.69402 -0.0195,1.301205 -0.0195,1.301205 0.58105,2.418285 0.17564,0.12278 0.35128,0.24556 0.53223,0.37207 0.30165,0.21656 0.30165,0.21656 0.60937,0.4375 1.91405,0.6716 4.071,0.52448 5.955,-0.20703 0.89165,-0.4718 1.12785,-1.05735 1.43555,-1.98047 h 1.75 c -0.16907,1.43712 -0.8079,2.39015 -1.92187,3.297 -2.14335,1.17277 -4.3795,1.67847 -6.79,1.0039 -0.85803,-0.32855 -1.59555,-0.64923 -2.3203,-1.21973 -0.15437,-0.10925 -0.30873,-0.21849 -0.46778,-0.33105 -0.7097,0.18198 -1.22597,0.48483 -1.84375,0.875 -1.85015,1.05723 -4.0465,1.22778 -6.1025,0.69433 -1.75932,-0.65543 -3.239,-1.55413 -4.05375,-3.31925 v -1 h 1.75 c 0.098,0.23203 0.19594,0.46405 0.29688,0.70312 0.49682,0.87373 0.8004,1.1385 1.70312,1.54688 2.28005,0.54397 4.21625,0.4503 6.28425,-0.67773 0.50023,-0.29082 0.50023,-0.29082 0.71583,-0.82227 0.0604,-0.83708 0.0463,-1.676605 0.0469,-2.515505 0.005,-0.34395 0.005,-0.34395 0.009,-0.69483 0.003,-1.3236 -0.10717,-2.51525 -0.44843,-3.79575 -0.10772,-0.49372 -0.10772,-0.49372 -0.10772,-1.49372 l -0.60938,-0.125 c -1.55295,-0.65388 -2.9925,-1.93745 -3.8905,-3.375 -0.16536,-0.77033 -0.14503,-1.4765 0,-2.25 1.37355,-1.95628 3.55,-1.83015 5.71875,-1.8125 z"
       fill="#3f3e56"
       id="path10"
       style="stroke-width:0.25" />
    <path
       d="m 125.80885,37.311885 c 0.41113,0.33202 0.41113,0.33202 1.00488,0.98827 v 0.5 c -0.28665,0.005 -0.28665,0.005 -0.5791,0.0107 -7.70425,0.34303 -14.5365,5.64625 -19.671,10.98925 -1.32088,-0.38952 -2.6365,-0.79135 -3.94625,-1.2168 -6.620001,-2.13162 -13.795001,-3.86625 -20.803751,-3.53325 l -0.5,-2.25 c 7.68375,0.17705 15.33225,1.5175 22.511001,4.31825 0.8738,0.33703 1.55405,0.53315 2.48907,0.43178 0.4994,-0.34388 0.4994,-0.34388 0.9287,-0.8418 0.16964,-0.179 0.33928,-0.358 0.51405,-0.54243 0.17874,-0.19289 0.35748,-0.3858 0.54163,-0.58452 3.3015,-3.417 12.334,-11.006 17.51075,-8.2695 z"
       fill="#d0e085"
       id="path11"
       style="stroke-width:0.25" />
    <path
       d="m 59.063849,77.299385 c 0.75553,0.43612 1.35413,0.95825 1.75,1.75 0.0876,1.3356 0.11403,2.16197 -0.75,3.25 -1.00062,0.6671 -1.82327,0.7085 -3,0.5 -0.68892,-0.5454 -1.10897,-0.96795 -1.5,-1.75 -0.0876,-1.3356 -0.11402,-2.16198 0.75,-3.25 0.9222,-0.6148 1.6796,-0.70398 2.75,-0.5 z"
       fill="#fbfafb"
       id="path12"
       style="stroke-width:0.25" />
    <path
       d="m 102.31385,77.299385 c 0.7103,0.30882 1.10525,0.56387 1.57813,1.17187 0.25832,0.8689 0.31532,1.68833 0.17187,2.578 -0.75,1.375 -0.75,1.375 -1.5,1.75 -0.76485,0.10519 -1.4865,0.12 -2.25,0 -1.081851,-0.83392 -1.428371,-1.4679 -1.609371,-2.8125 0.12771,-1.09465 0.40055,-1.57067 1.14745,-2.35645 0.850701,-0.6097 1.440821,-0.49312 2.461921,-0.33105 z"
       fill="#fbfbfb"
       id="path13"
       style="stroke-width:0.25" />
    <path
       d="m 105.95385,82.659385 c 0.84305,0.19455 1.1237,0.4211 1.60938,1.14062 0.15899,0.87798 0.15754,1.68493 -0.25,2.5 -0.81465,0.40733 -1.60975,0.38168 -2.5,0.25 -0.5,-0.26562 -0.5,-0.26562 -0.75,-0.75 -0.125,-0.84375 -0.125,-0.84375 0,-1.75 0.578,-0.77617 0.9357,-1.181 1.89062,-1.39062 z"
       fill="#757585"
       id="path14"
       style="stroke-width:0.25" />
    <path
       d="m 53.953849,82.814385 c 0.85938,0.23437 0.85938,0.23437 1.34375,0.5 0.43823,0.79912 0.39508,1.5967 0.26563,2.48437 -0.25,0.5 -0.25,0.5 -0.75,0.75 -0.69023,0.1136 -1.3109,0.12634 -2,0 -0.72945,-0.56987 -0.74455,-0.9564 -0.85938,-1.875 0.10938,-0.875 0.10938,-0.875 0.5,-1.5 0.60938,-0.375 0.60938,-0.375 1.5,-0.35937 z"
       fill="#757585"
       id="path15"
       style="stroke-width:0.25" />
    <path
       d="m 82.813849,87.299385 -0.25,0.75 c -0.96147,0.3205 -1.8733,0.29605 -2.875,0.29687 -0.28955,0.005 -0.28955,0.005 -0.58495,0.009 -0.9771,0.003 -1.45915,-0.002 -2.29005,-0.55615 l 0.25,-0.75 c 1.90498,-0.92808 3.92725,-0.701 5.75,0.25 z"
       fill="#f2f1f3"
       id="path16"
       style="stroke-width:0.25" />
    <path
       d="m 134.56385,93.549385 h 0.25 l 0.25,4.5 c -1.11375,-0.2475 -1.11375,-0.2475 -2.25,-0.5 l 0.5,-0.25 c 0.2103,-0.54385 0.2103,-0.54385 0.375,-1.1875 0.248,-0.87868 0.51128,-1.72315 0.875,-2.5625 z"
       fill="#d8d8e7"
       id="path17"
       style="stroke-width:0.25" />
    <path
       d="m 82.313849,85.549385 0.25,0.5 c -0.98875,0.65385 -2.04207,0.61065 -3.1875,0.65625 -0.2973,0.0145 -0.2973,0.0145 -0.60057,0.0293 -0.48723,0.0235 -0.97455,0.0442 -1.46193,0.0645 l 0.5,-0.25 v -0.5 c -0.2475,-0.0825 -0.495,-0.165 -0.75,-0.25 1.74195,-0.3318 3.4825,-0.27208 5.25,-0.25 z"
       fill="#383751"
       id="path18"
       style="stroke-width:0.25" />
    <path
       d="m 24.813849,93.549385 c 0.78818,1.18225 1.38168,2.30162 1.25,3.75 l -0.46875,0.0937 c -0.57905,0.12424 -0.57905,0.12424 -1.03125,0.65625 -0.0243,-1.52873 0.0574,-2.98325 0.25,-4.5 z"
       fill="#d2d1e1"
       id="path19"
       style="stroke-width:0.25" />
    <path
       d="m 29.813849,113.54939 c 1.0506,0.92937 1.74945,2.07915 2.5,3.25 h -0.75 c -0.45605,-0.58398 -0.45605,-0.58398 -0.92187,-1.34375 -0.15566,-0.24944 -0.3113,-0.49888 -0.47168,-0.75585 -0.35645,-0.6504 -0.35645,-0.6504 -0.35645,-1.1504 z"
       fill="#f0eff2"
       id="path20"
       style="stroke-width:0.25" />
    <path
       d="m 24.813849,93.549385 c 0.48855,0.73282 0.66175,1.13957 0.75,2 l -0.5,0.5 c -0.25,-0.25 -0.25,-0.25 -0.27442,-0.7666 0.003,-0.20593 0.006,-0.41185 0.009,-0.62403 0.002,-0.20657 0.005,-0.41315 0.007,-0.62597 0.003,-0.15953 0.006,-0.31905 0.009,-0.4834 z"
       fill="#dadaea"
       id="path21"
       style="stroke-width:0.25" />
  </g>
</svg>
