<?xml version="1.0" encoding="UTF-8"?>
<svg version="1.1" viewBox="0 0 600 600" xmlns="http://www.w3.org/2000/svg">
    <path transform="translate(149,100)" d="m0 0c15.791 6.9158 41.059 19.119 49 35 5.1682-1.3513 10.309-2.7736 15.41-4.3594 19.24-5.9696 38.562-10.339 58.59-12.641 0.8109-0.095713 1.6218-0.19143 2.4573-0.29004 8.5196-0.89638 17.048-0.95336 25.605-0.95996 0.79129-6.7474e-4 1.5826-0.0013495 2.3979-0.0020447 14.346 0.019297 28.363 0.93969 42.54 3.252 1.0256 0.16629 2.0512 0.33258 3.1079 0.50391 14.474 2.4383 28.344 6.2156 42.302 10.727 4.4976 1.4527 8.9885 2.6924 13.59 3.7695l2.3125-2.9375c4.3258-5.0366 9.4557-9.0089 14.688-13.062 1.3187-1.0248 1.3187-1.0248 2.6641-2.0703 17.126-12.883 39.281-25.081 61.336-22.93 3.2409 1.1363 5.472 2.7023 8 5 0.55172 0.44988 1.1034 0.89977 1.6719 1.3633 12.433 11.91 12.075 42.393 12.453 58.359 0.2775 17.433-1.2526 34.367-4.8037 51.439-1.6954 8.1852-1.6183 11.945 3.0537 19.15 6.1714 9.9247 10.392 20.558 14.639 31.414 0.99631 2.4815 0.99631 2.4815 2.9863 5.2739 0.93795-0.33846 1.8759-0.67692 2.8423-1.0256 3.4951-1.257 6.9965-2.4957 10.5-3.729 1.5128-0.5354 3.0239-1.0757 4.5332-1.6211 2.1751-0.78502 4.3559-1.5519 6.5386-2.3157 0.66899-0.24577 1.338-0.49155 2.0273-0.74477 4.2387-1.4586 7.2144-1.672 11.559-0.56383l1 7c-3.4228 2.9626-7.1597 4.2971-11.391 5.6992-0.70461 0.23991-1.4092 0.47982-2.1352 0.727-2.2391 0.76064-4.4815 1.5111-6.7242 2.2613-1.5237 0.5156-3.0471 1.0319-4.5703 1.5488-3.724 1.2623-7.451 2.5154-11.18 3.7637 0.2272 1.1421 0.2272 1.1421 0.45898 2.3074 0.68523 3.4591 1.3632 6.9196 2.041 10.38 0.23848 1.1982 0.47695 2.3964 0.72266 3.6309 0.22559 1.1569 0.45117 2.3139 0.68359 3.5059 0.20947 1.0631 0.41895 2.1261 0.63477 3.2214 0.42255 2.7198 0.49298 5.2107 0.45898 7.9543 0.66985-0.0044412 1.3397-0.0088824 2.0299-0.013458 6.9589-0.044176 13.918-0.074384 20.877-0.096405 2.5986-0.01007 5.1973-0.023727 7.7959-0.041016 3.7307-0.024202 7.4613-0.035594 11.192-0.044434 1.1657-0.010323 2.3314-0.020645 3.5324-0.031281 1.0809-1.5106e-4 2.1618-3.0212e-4 3.2754-4.5776e-4 0.95264-0.0044412 1.9053-0.0088824 2.8868-0.013458 2.4108 0.24051 2.4108 0.24051 5.4108 2.2405 0.375 3.5 0.375 3.5 0 7-3.3258 2.2172-4.3361 2.2454-8.2058 2.2271-1.0609-1.5106e-4 -2.1217-3.0212e-4 -3.2148-4.5776e-4 -1.1438-0.010323-2.2877-0.020645-3.4661-0.031281-1.1721-0.0028299-2.3443-0.0056598-3.552-0.0085754-3.7497-0.01121-7.4992-0.036316-11.249-0.061737-2.5397-0.010029-5.0794-0.019155-7.6191-0.027344-6.2313-0.02037-12.462-0.059518-18.693-0.097656v32c8.3738 2.8348 8.3738 2.8348 16.753 5.6536 1.0458 0.35796 2.0915 0.71591 3.1689 1.0847 1.0683 0.36134 2.1366 0.72268 3.2373 1.095 2.6856 1.103 4.6274 2.3105 6.8408 4.1667l-1 7c-4.7142 1.1094-7.5411 0.82731-12.055-0.87109-1.1086-0.40928-2.2172-0.81855-3.3594-1.2402-1.7132-0.65646-1.7132-0.65646-3.4609-1.3262-1.1653-0.43377-2.3306-0.86754-3.5312-1.3145-2.8695-1.0702-5.7336-2.1532-8.5938-3.248-0.25245 1.4492-0.25245 1.4492-0.51001 2.9277-3.9394 22.082-12.486 42.786-25.49 61.072-0.39494 0.5572-0.78987 1.1144-1.1968 1.6885-16.016 22.221-36.555 38.906-60.803 51.312-0.78939 0.4096-1.5788 0.8192-2.3921 1.2412-41.584 21.389-88.365 32.17-135.01 32.074-3.1984-0.0031495-6.3959 0.020364-9.5942 0.045654-19.39 0.060372-38.412-2.008-57.379-6.0488-1.2013-0.25346-2.4027-0.50692-3.6404-0.76807-24.459-5.3475-47.471-13.913-70.047-24.607-1.5344-0.72365-1.5344-0.72365-3.0999-1.4619-15.554-7.5141-29.322-17.609-41.838-29.476-0.95777-0.89332-1.9155-1.7866-2.9023-2.707-7.7534-7.3782-14.14-15.414-20.098-24.293-0.59724-0.88679-0.59724-0.88679-1.2065-1.7915-11.613-17.543-20.169-38.266-22.793-59.208-0.73114 0.27787-1.4623 0.55575-2.2156 0.84204-3.3192 1.2532-6.6453 2.487-9.9719 3.7205-1.1505 0.43764-2.301 0.87527-3.4863 1.3262-1.1118 0.40928-2.2236 0.81855-3.3691 1.2402-1.0212 0.38229-2.0424 0.76458-3.0945 1.1584-3.1085 0.77387-4.8392 0.70841-7.8625-0.28735-2-2-2-2-2.375-4.4375 0.375-2.5625 0.375-2.5625 2.0186-4.0813 2.7364-1.72 5.3725-2.7072 8.4346-3.7429 1.5686-0.53693 1.5686-0.53693 3.1689-1.0847 1.9815-0.66383 1.9815-0.66383 4.0029-1.3411l12.75-4.3125v-32c-3.7911 0.034805-7.5823 0.069609-11.488 0.10547-3.6636 0.023383-7.3273 0.041607-10.991 0.059326-2.5502 0.015105-5.1003 0.03559-7.6504 0.061523-3.6613 0.036307-7.3222 0.053391-10.984 0.06665-1.1438 0.015484-2.2877 0.030968-3.4661 0.046921-1.5913 3.3989e-4 -1.5913 3.3989e-4 -3.2148 6.8664e-4 -1.4023 0.0099928-1.4023 0.0099928-2.833 0.020187-2.3728-0.36076-2.3728-0.36076-4.1748-1.6906-1.8512-2.5806-1.5904-4.5969-1.1981-7.6701 3.3462-2.2308 4.3959-2.2452 8.2976-2.2271 1.0809 1.5106e-4 2.1618 3.0212e-4 3.2754 4.5776e-4 1.7486 0.015484 1.7486 0.015484 3.5324 0.031281 1.1943 0.0028299 2.3887 0.0056598 3.6192 0.0085754 3.821 0.01121 7.6418 0.036317 11.463 0.061737 2.5879 0.010029 5.1758 0.019155 7.7637 0.027344 6.3497 0.022072 12.699 0.055558 19.049 0.097656 0.10957-0.98098 0.21914-1.962 0.33203-2.9727 1.0979-9.4631 2.6606-18.713 4.668-28.027-1.0195-0.35304-2.039-0.70608-3.0894-1.0698-3.7778-1.3099-7.5528-2.6274-11.327-3.9473-1.6347-0.57044-3.2701-1.1388-4.9062-1.7051-2.3501-0.81376-4.6975-1.6349-7.0444-2.4575-1.1001-0.37824-1.1001-0.37824-2.2224-0.76413-5.1827-1.8284-5.1827-1.8284-7.4104-4.0562 0.375-3.625 0.375-3.625 1-7 5.1814-1.3288 8.898-0.43694 13.805 1.3086 0.72398 0.24557 1.448 0.49114 2.1939 0.74416 2.2967 0.78228 4.5864 1.5831 6.8764 2.3848 1.5621 0.53575 3.1246 1.0703 4.6875 1.6035 3.8175 1.3055 7.6289 2.6277 11.438 3.959 0.65742-1.7654 0.65742-1.7654 1.3281-3.5664 12.809-33.571 12.809-33.571 19.672-40.434-0.05283-5.8245-1.2866-11.565-2.4375-17.25-5.3928-27.41-4.6856-55.661 0.3125-83.062 0.14921-0.84095 0.29842-1.6819 0.45215-2.5483 1.4593-7.4559 3.5191-15.161 9.6729-20.077 0.66-0.54527 1.32-1.0905 2-1.6523 11.494-8.1043 26.272-2.2932 38 2.5898z" fill="#FEFEFE"/>
    <path transform="translate(149,100)" d="m0 0c15.791 6.9158 41.059 19.119 49 35 5.1682-1.3513 10.309-2.7736 15.41-4.3594 19.24-5.9696 38.562-10.339 58.59-12.641 0.8109-0.095713 1.6218-0.19143 2.4573-0.29004 8.5196-0.89638 17.048-0.95336 25.605-0.95996 0.79129-6.7474e-4 1.5826-0.0013495 2.3979-0.0020447 14.346 0.019297 28.363 0.93969 42.54 3.252 1.0256 0.16629 2.0512 0.33258 3.1079 0.50391 14.474 2.4383 28.344 6.2156 42.302 10.727 4.4976 1.4527 8.9885 2.6924 13.59 3.7695l2.3125-2.9375c4.3258-5.0366 9.4557-9.0089 14.688-13.062 1.3187-1.0248 1.3187-1.0248 2.6641-2.0703 17.126-12.883 39.281-25.081 61.336-22.93 3.2409 1.1363 5.472 2.7023 8 5 0.55172 0.44988 1.1034 0.89977 1.6719 1.3633 12.433 11.91 12.075 42.393 12.453 58.359 0.2775 17.433-1.2526 34.367-4.8037 51.439-1.6954 8.1852-1.6183 11.945 3.0537 19.15 6.1714 9.9247 10.392 20.558 14.639 31.414 0.99631 2.4815 0.99631 2.4815 2.9863 5.2739 0.93795-0.33846 1.8759-0.67692 2.8423-1.0256 3.4951-1.257 6.9965-2.4957 10.5-3.729 1.5128-0.5354 3.0239-1.0757 4.5332-1.6211 2.1751-0.78502 4.3559-1.5519 6.5386-2.3157 0.66899-0.24577 1.338-0.49155 2.0273-0.74477 4.2387-1.4586 7.2144-1.672 11.559-0.56383l1 7c-3.4228 2.9626-7.1597 4.2971-11.391 5.6992-0.70461 0.23991-1.4092 0.47982-2.1352 0.727-2.2391 0.76064-4.4815 1.5111-6.7242 2.2613-1.5237 0.5156-3.0471 1.0319-4.5703 1.5488-3.724 1.2623-7.451 2.5154-11.18 3.7637 0.2272 1.1421 0.2272 1.1421 0.45898 2.3074 0.68523 3.4591 1.3632 6.9196 2.041 10.38 0.23848 1.1982 0.47695 2.3964 0.72266 3.6309 0.22559 1.1569 0.45117 2.3139 0.68359 3.5059 0.20947 1.0631 0.41895 2.1261 0.63477 3.2214 0.42255 2.7198 0.49298 5.2107 0.45898 7.9543 0.66985-0.0044412 1.3397-0.0088824 2.0299-0.013458 6.9589-0.044176 13.918-0.074384 20.877-0.096405 2.5986-0.01007 5.1973-0.023727 7.7959-0.041016 3.7307-0.024202 7.4613-0.035594 11.192-0.044434 1.1657-0.010323 2.3314-0.020645 3.5324-0.031281 1.0809-1.5106e-4 2.1618-3.0212e-4 3.2754-4.5776e-4 0.95264-0.0044412 1.9053-0.0088824 2.8868-0.013458 2.4108 0.24051 2.4108 0.24051 5.4108 2.2405 0.375 3.5 0.375 3.5 0 7-3.3258 2.2172-4.3361 2.2454-8.2058 2.2271-1.0609-1.5106e-4 -2.1217-3.0212e-4 -3.2148-4.5776e-4 -1.1438-0.010323-2.2877-0.020645-3.4661-0.031281-1.1721-0.0028299-2.3443-0.0056598-3.552-0.0085754-3.7497-0.01121-7.4992-0.036316-11.249-0.061737-2.5397-0.010029-5.0794-0.019155-7.6191-0.027344-6.2313-0.02037-12.462-0.059518-18.693-0.097656v32c8.3738 2.8348 8.3738 2.8348 16.753 5.6536 1.0458 0.35796 2.0915 0.71591 3.1689 1.0847 1.0683 0.36134 2.1366 0.72268 3.2373 1.095 2.6856 1.103 4.6274 2.3105 6.8408 4.1667l-1 7c-4.7142 1.1094-7.5411 0.82731-12.055-0.87109-1.1086-0.40928-2.2172-0.81855-3.3594-1.2402-1.7132-0.65646-1.7132-0.65646-3.4609-1.3262-1.1653-0.43377-2.3306-0.86754-3.5312-1.3145-2.8695-1.0702-5.7336-2.1532-8.5938-3.248-0.25245 1.4492-0.25245 1.4492-0.51001 2.9277-3.9394 22.082-12.486 42.786-25.49 61.072-0.39494 0.5572-0.78987 1.1144-1.1968 1.6885-16.016 22.221-36.555 38.906-60.803 51.312-0.78939 0.4096-1.5788 0.8192-2.3921 1.2412-41.584 21.389-88.365 32.17-135.01 32.074-3.1984-0.0031495-6.3959 0.020364-9.5942 0.045654-19.39 0.060372-38.412-2.008-57.379-6.0488-1.2013-0.25346-2.4027-0.50692-3.6404-0.76807-24.459-5.3475-47.471-13.913-70.047-24.607-1.5344-0.72365-1.5344-0.72365-3.0999-1.4619-15.554-7.5141-29.322-17.609-41.838-29.476-0.95777-0.89332-1.9155-1.7866-2.9023-2.707-7.7534-7.3782-14.14-15.414-20.098-24.293-0.59724-0.88679-0.59724-0.88679-1.2065-1.7915-11.613-17.543-20.169-38.266-22.793-59.208-0.73114 0.27787-1.4623 0.55575-2.2156 0.84204-3.3192 1.2532-6.6453 2.487-9.9719 3.7205-1.1505 0.43764-2.301 0.87527-3.4863 1.3262-1.1118 0.40928-2.2236 0.81855-3.3691 1.2402-1.0212 0.38229-2.0424 0.76458-3.0945 1.1584-3.1085 0.77387-4.8392 0.70841-7.8625-0.28735-2-2-2-2-2.375-4.4375 0.375-2.5625 0.375-2.5625 2.0186-4.0813 2.7364-1.72 5.3725-2.7072 8.4346-3.7429 1.5686-0.53693 1.5686-0.53693 3.1689-1.0847 1.9815-0.66383 1.9815-0.66383 4.0029-1.3411l12.75-4.3125v-32c-3.7911 0.034805-7.5823 0.069609-11.488 0.10547-3.6636 0.023383-7.3273 0.041607-10.991 0.059326-2.5502 0.015105-5.1003 0.03559-7.6504 0.061523-3.6613 0.036307-7.3222 0.053391-10.984 0.06665-1.1438 0.015484-2.2877 0.030968-3.4661 0.046921-1.5913 3.3989e-4 -1.5913 3.3989e-4 -3.2148 6.8664e-4 -1.4023 0.0099928-1.4023 0.0099928-2.833 0.020187-2.3728-0.36076-2.3728-0.36076-4.1748-1.6906-1.8512-2.5806-1.5904-4.5969-1.1981-7.6701 3.3462-2.2308 4.3959-2.2452 8.2976-2.2271 1.0809 1.5106e-4 2.1618 3.0212e-4 3.2754 4.5776e-4 1.7486 0.015484 1.7486 0.015484 3.5324 0.031281 1.1943 0.0028299 2.3887 0.0056598 3.6192 0.0085754 3.821 0.01121 7.6418 0.036317 11.463 0.061737 2.5879 0.010029 5.1758 0.019155 7.7637 0.027344 6.3497 0.022072 12.699 0.055558 19.049 0.097656 0.10957-0.98098 0.21914-1.962 0.33203-2.9727 1.0979-9.4631 2.6606-18.713 4.668-28.027-1.0195-0.35304-2.039-0.70608-3.0894-1.0698-3.7778-1.3099-7.5528-2.6274-11.327-3.9473-1.6347-0.57044-3.2701-1.1388-4.9062-1.7051-2.3501-0.81376-4.6975-1.6349-7.0444-2.4575-1.1001-0.37824-1.1001-0.37824-2.2224-0.76413-5.1827-1.8284-5.1827-1.8284-7.4104-4.0562 0.375-3.625 0.375-3.625 1-7 5.1814-1.3288 8.898-0.43694 13.805 1.3086 0.72398 0.24557 1.448 0.49114 2.1939 0.74416 2.2967 0.78228 4.5864 1.5831 6.8764 2.3848 1.5621 0.53575 3.1246 1.0703 4.6875 1.6035 3.8175 1.3055 7.6289 2.6277 11.438 3.959 0.65742-1.7654 0.65742-1.7654 1.3281-3.5664 12.809-33.571 12.809-33.571 19.672-40.434-0.05283-5.8245-1.2866-11.565-2.4375-17.25-5.3928-27.41-4.6856-55.661 0.3125-83.062 0.14921-0.84095 0.29842-1.6819 0.45215-2.5483 1.4593-7.4559 3.5191-15.161 9.6729-20.077 0.66-0.54527 1.32-1.0905 2-1.6523 11.494-8.1043 26.272-2.2932 38 2.5898zm-36 9c-1.9156 4.5373-3.0053 9.193-4 14-0.15098 0.68433-0.30196 1.3687-0.45752 2.0737-5.8826 27.826-5.6509 63.272 3.0044 90.426 1.1525 6.3584-1.0411 10.912-4.4844 16.062-6.1033 9.605-10.605 19.989-15.062 30.438-0.37262 0.84095-0.74524 1.6819-1.1292 2.5483-1.094 2.6462-1.094 2.6462-0.87085 6.4517 1.0827 0.4011 1.0827 0.4011 2.1873 0.8103 3.2511 1.2062 6.5007 2.4167 9.7502 3.6272 1.1363 0.42088 2.2726 0.84176 3.4434 1.2754 1.0796 0.40283 2.1592 0.80566 3.2715 1.2207 1.0002 0.37181 2.0005 0.74363 3.031 1.1267 2.3167 0.9397 2.3167 0.9397 3.3167 1.9397 0.125 2.5 0.125 2.5 0 5-1 1-1 1-3.4219 1.2812-4.9552-0.38949-9.1946-2.052-13.828-3.7812-1.7959-0.65885-3.5928-1.3152-5.3906-1.9688-0.78923-0.29326-1.5785-0.58652-2.3916-0.88867-1.9396-0.74605-1.9396-0.74605-3.9678-0.64258-0.84158 3.8941-1.6718 7.7905-2.5 11.688-0.23848 1.1028-0.47695 2.2056-0.72266 3.3418-0.22559 1.0667-0.45117 2.1334-0.68359 3.2324-0.20947 0.97928-0.41895 1.9586-0.63477 2.9675-0.43903 2.6503-0.54454 5.0907-0.45898 7.7708 0.90093 0.037584 0.90093 0.037584 1.8201 0.075928 2.706 0.11563 5.4117 0.2385 8.1174 0.36157 0.94553 0.039316 1.8911 0.078633 2.8652 0.11914 0.89912 0.041895 1.7982 0.083789 2.7246 0.12695 1.249 0.054987 1.249 0.054987 2.5232 0.11108 1.9495 0.20532 1.9495 0.20532 2.9495 1.2053 0.125 2.5 0.125 2.5 0 5-1.6178 1.6178-3.4564 1.2227-5.6914 1.3164-0.85022 0.038108-1.7004 0.076216-2.5764 0.11548-1.0872 0.043103-2.1745 0.086206-3.2947 0.13062l-10.438 0.4375v30c7.5496-2.059 14.709-4.2301 21.967-7.0137 4.1508-1.5292 7.5334-2.4067 12.033-1.9863 1 1 1 1 1.0625 3.5625l-0.0625 2.4375c-7.8427 3.7121-15.928 6.4249-24.176 9.0879-0.99387 0.33322-1.9877 0.66645-3.0117 1.0098-0.90105 0.29399-1.8021 0.58797-2.7305 0.89087-0.68707 0.33379-1.3741 0.66757-2.082 1.0115-4.5106 13.532 7.8064 35.858 13.836 47.965 21.223 40.673 57.885 62.59 99.164 79.035 1.0265 0.41886 1.0265 0.41886 2.0737 0.84619 15.859 6.4409 33.17 10.191 49.926 13.466 1.1061 0.22055 1.1061 0.22055 2.2346 0.44556 15.891 2.9302 31.833 3.5888 47.953 3.4919 0.93994-0.0034341 1.8799-0.0068683 2.8483-0.010406 22.965-0.098153 44.584-1.8755 66.964-7.2396 1.4683-0.34853 1.4683-0.34853 2.9663-0.7041 38.185-9.1847 76.17-23.97 105.03-51.296 0.8843-0.81984 1.7686-1.6397 2.6797-2.4844 11.413-10.928 20.013-23.623 27.309-37.586 0.94873-1.81 1.9301-3.6027 2.9136-5.394 5.9377-11.551 11.098-26.475 11.098-39.535-0.71543-0.25169-1.4309-0.50338-2.168-0.7627-3.2793-1.1571-6.5556-2.3221-9.832-3.4873-1.1254-0.39574-2.2507-0.79148-3.4102-1.1992-6.0962-2.1747-11.879-4.4997-17.59-7.5508-0.042721-1.6661-0.040638-3.3338 0-5l1-1c7.2044 0.40215 13.602 2.6971 20.375 5.0625 2.1528 0.74343 4.3064 1.4844 6.4609 2.2227 1.4161 0.49319 1.4161 0.49319 2.8608 0.99634 2.2193 0.81777 2.2193 0.81777 4.3032 0.71851v-30c-6.8659-0.28925-6.8659-0.28925-13.732-0.56812-0.85022-0.038108-1.7004-0.076216-2.5764-0.11548-0.87455-0.036658-1.7491-0.073315-2.6501-0.11108-2.0413-0.20532-2.0413-0.20532-3.0413-1.2053-0.125-2.5-0.125-2.5 0-5 1.584-1.584 3.2772-1.2197 5.4727-1.3164 1.3487-0.062842 1.3487-0.062842 2.7246-0.12695 0.94553-0.039316 1.8911-0.078633 2.8652-0.11914 0.94939-0.043184 1.8988-0.086367 2.877-0.13086 2.3534-0.10643 4.7068-0.20845 7.0605-0.30664-1.0763-9.864-2.5274-19.373-5-29-7.0594 1.6263-13.802 3.5221-20.527 6.2305-2.6438 0.8228-4.7202 0.98494-7.4727 0.76953-1-1-1-1-1.375-3.375 0.375-2.625 0.375-2.625 2.2539-4.0586 4.3406-2.1785 8.839-3.6986 13.434-5.2539 0.93135-0.32033 1.8627-0.64066 2.8223-0.9707 2.2867-0.78569 4.5751-1.5661 6.8652-2.3418-0.2836-1.4391-0.57721-2.8763-0.875-4.3125-0.16242-0.80051-0.32484-1.601-0.49219-2.4258-0.5776-2.5147-0.5776-2.5147-2.6328-5.2617-3.1187-0.23046-6.0383-0.27436-9.1523-0.1875-0.92873 0.01136-1.8575 0.02272-2.8143 0.034424-3.9708 0.048771-7.9407 0.13152-11.911 0.2146-17.081 0.3268-33.309-0.85119-49.747-5.8115-0.87205-0.25822-1.7441-0.51643-2.6426-0.78247-21.469-6.5358-42.015-16.662-59.732-30.468-1.3361-1.0035-1.3361-1.0035-2.6992-2.0273-30.733-23.934-50.124-56.442-62.301-92.973-32.963-1.5036-65.874 4.405-96.923 15.322-10.597 3.7012-10.597 3.7012-15.077 3.6785-2.3711-1.8438-2.3711-1.8438-4.4375-4.5-15.552-18.788-40.516-33.892-64.707-38.039-5.4294-0.30932-9.8125 0.72023-12.855 5.5391z" fill="#3C3B52"/>
    <path transform="translate(477.88 103.56)" d="m0 0c1.2027-0.090879 1.2027-0.090879 2.4297-0.18359 4.3077 0.99265 7.0083 3.1335 9.6953 6.6211 1.4875 3.6877 2.1941 7.4047 2.875 11.312 0.19852 0.99451 0.39703 1.989 0.60156 3.0137 1.7492 9.0003 2.6767 17.837 2.7266 27.002 0.0069237 0.86339 0.013847 1.7268 0.020981 2.6163 0.017182 2.7686 0.023586 5.5369 0.025894 8.3055 0.0013394 0.94242 0.0026788 1.8848 0.0040588 2.8558-0.004171 13.496-0.33393 26.662-3.2541 39.894-0.14405 0.66177-0.28811 1.3235-0.43652 2.0054-0.62353 2.8143-1.2818 5.6124-2.0127 8.4009-1.4238 6.705 0.47413 9.8778 4.0117 15.469 11.612 19 11.612 19 13.438 28.125-4.4412 1.0941-8.8044 1.178-13.352 1.2031-0.81351 0.0057001-1.627 0.0114-2.4652 0.017273-1.7264 0.0094324-3.4529 0.015977-5.1794 0.019836-2.572 0.0095541-5.1431 0.040528-7.7148 0.072266-15.294 0.09895-30.231-1.6316-44.914-6.0625-0.87205-0.25822-1.7441-0.51643-2.6426-0.78247-21.471-6.5363-42.011-16.664-59.732-30.468-0.87914-0.65742-1.7583-1.3148-2.6641-1.9922-14.818-11.505-27.858-25.473-38.336-41.008-0.37802-0.55994-0.75604-1.1199-1.1455-1.6968-8.0444-12.11-14.16-25.074-19.354-38.616-0.35062-0.91395-0.70125-1.8279-1.0625-2.7695-2.4375-6.5262-2.4375-6.5262-2.4375-9.918 30.735 0.70817 61.329 6.07 90.044 17.273 3.4952 1.3481 6.2162 2.1326 9.9563 1.7271 1.9976-1.3755 1.9976-1.3755 3.7148-3.3672 0.67853-0.71599 1.3571-1.432 2.0562-2.1697 0.71495-0.77158 1.4299-1.5432 2.1665-2.3381 15.904-16.46 39.253-33.314 62.938-34.562z" fill="#8BC53F"/>
    <path transform="translate(91.072 355.67)" d="m0 0c2.2202 1.5285 3.1692 2.8636 4.5215 5.1865 0.46664 0.77916 0.93328 1.5583 1.4141 2.3611 0.49242 0.83475 0.98484 1.6695 1.4922 2.5295 5.4287 8.8793 11.397 16.664 18.5 24.25 0.47905 0.52143 0.9581 1.0429 1.4517 1.5801 34.127 36.91 90.897 56.17 139.68 62.055 2.0815 0.26406 4.1589 0.56154 6.2329 0.87939 12.186 1.7631 24.281 1.8371 36.578 1.7976 1.0829-8.2581e-4 2.1658-0.0016516 3.2815-0.0025024 18.079-0.03178 35.73-0.69919 53.413-4.7739 2.6079-0.59041 5.2246-1.1238 7.8447-1.6572 52.922-11.134 105.28-34.798 136.2-80.821 2.3142-3.6038 4.3253-7.3208 6.1729-11.187 1.1484-1.8711 1.1484-1.8711 4.1484-2.8711 2.043 0.55859 2.043 0.55859 4.1875 1.4375 0.71543 0.28746 1.4309 0.57492 2.168 0.87109 0.5427 0.22816 1.0854 0.45633 1.6445 0.69141-1.987 15.504-5.8059 29.203-13 43-0.52086 1.0006-0.52086 1.0006-1.0522 2.0215-7.0562 13.382-15.534 24.96-25.948 35.979-1.195 1.309-1.195 1.309-2.4141 2.6445-29.432 31.077-75.349 45.89-115.96 54.778-2.2309 0.49077-4.4528 1.0071-6.6743 1.5381-67.582 15.185-147.16-0.17754-205.75-36.207-29.121-18.641-49.12-45.714-61.195-77.754-0.4125-1.0712-0.825-2.1424-1.25-3.2461-2.6919-7.4523-3.8665-14.896-4.75-22.754 6.3937-3.1969 6.3937-3.1969 9.0723-2.3271z" fill="#D9D9E9"/>
    <path transform="translate(433.62 316.75)" d="m0 0c1.1254-0.020625 2.2507-0.04125 3.4102-0.0625 13.634-0.06305 28.855 3.5837 38.965 13.312 3.6327 4.2602 5.8522 8.2992 5.4062 13.996-1.4501 7.153-5.1379 11.259-10.969 15.469-3.6557 2.3024-7.4011 4.0157-11.438 5.5352l-3.0625 1.1875c-14.79 4.0909-34.916 4.2996-48.938-2.1875-0.97969-0.4357-1.9594-0.87141-2.9688-1.3203-6.3024-3.1004-11.067-6.8324-15.031-12.68-1.6724-5.0171-2.2409-10.305 0.023438-15.223 6.7275-9.6452 18.13-14.692 29.303-17.326 5.0602-0.85446 10.179-0.67843 15.298-0.70142z" fill="#F390B2"/>
    <path transform="translate(191,320)" d="m0 0c1.0248 0.35191 2.0496 0.70383 3.1055 1.0664 7.9054 2.9756 13.397 6.8896 18.895 13.246 1.9593 5.2657 1.6666 10.563 0 15.875-5.3706 7.5524-12.408 11.653-21 14.812-0.70608 0.26257-1.4122 0.52513-2.1396 0.79565-6.8508 2.3265-13.166 2.6258-20.36 2.5168-1.5952 0.004834-1.5952 0.004834-3.2227 0.0097656-14.81-0.099945-28.827-3.4896-40.277-13.322-3.9275-4.4678-5.3961-8.9892-5.2656-14.957 0.78813-6.0617 6.2435-10.375 10.652-14.148 15.638-11.337 41.815-12.308 59.613-5.8945z" fill="#F390B2"/>
    <path transform="translate(408.44 250.94)" d="m0 0c6.9293 4.093 12.987 10.671 15.93 18.227 2.3058 10.333 1.9731 21.022-3.457 30.277-4.9897 6.6835-11.186 11.902-19.285 14.246-8.7407 1.0406-15.538-0.10107-22.863-5.2656-8.2647-6.9106-12.8-14.317-14.082-25.121-0.4111-9.6061 2.2791-17.309 8.4453-24.676 9.5589-9.7451 22.265-13.457 35.312-7.6875z" fill="#3C3B53"/>
    <path transform="translate(221.86 252.46)" d="m0 0c7.716 5.5375 13.34 13.017 15.145 22.539 0.85089 10.243-0.73765 19.109-7.3281 27.184-6.7203 7.3012-13.369 11.282-23.359 12.129-8.5313-0.1764-15.281-4.3605-21.332-10.09-7.4387-8.3484-8.6257-16.994-8.3789-27.812 0.52316-8.6359 4.656-15.131 10.836-20.973 10.016-7.9628 22.994-9.759 34.418-2.9766z" fill="#3C3B53"/>
    <path transform="translate(101,410)" d="m0 0c2.8691 2.7194 5.0662 5.4641 7.25 8.75 27.376 37.991 76.713 58.049 120.75 68.25 1.5886 0.38123 3.1772 0.76273 4.7656 1.1445 7.614 1.7937 15.264 3.2835 22.984 4.543 1.0794 0.17922 1.0794 0.17922 2.1807 0.36206 13.045 2.0187 26.135 2.1111 39.301 2.0808 2.7641-0.0053624 5.5279-2.111e-5 8.292 0.0063477 15.695 0.0091451 30.787-1.0936 46.227-3.8867 0.74535-0.13283 1.4907-0.26567 2.2586-0.40253 11.202-2.0047 22.133-4.4217 32.991-7.8475 1.0158-0.27973 2.0316-0.55945 3.0781-0.84766 37.094-10.439 73.137-29.092 98.922-58.152l1-2h2c-1.4516 4.6746-4.1794 7.7252-7.5 11.188-0.54116 0.57097-1.0823 1.1419-1.6399 1.7302-1.1019 1.1586-2.2071 2.314-3.3157 3.4661-1.3406 1.4029-2.6541 2.8316-3.9624 4.2646-28.776 30.608-75.231 45.08-114.96 53.774-2.2309 0.49077-4.4528 1.0071-6.6743 1.5381-67.582 15.185-147.16-0.17754-205.75-36.207-19.172-12.273-37.206-29.673-48.195-49.754v-2z" fill="#F9F9FA"/>
    <path transform="translate(299.88 297.75)" d="m0 0c1.4135-0.011602 1.4135-0.011602 2.8555-0.023438 7.1947 0.019902 14.234 0.229 20.332 4.3359 2.2388 3.3943 2.9061 5.429 2.6836 9.4609-1.9557 6.4918-7.9931 11.704-13.684 15.102-3.0625 1.375-3.0625 1.375-5.0625 1.375-1.6671 8.0227-2.2622 15.886-2.375 24.062-0.038672 1.3742-0.038672 1.3742-0.078125 2.7761-0.078117 5.2048-0.078117 5.2048 2.3242 9.6731 0.70254 0.49113 1.4051 0.98227 2.1289 1.4883 1.2066 0.86625 1.2066 0.86625 2.4375 1.75 7.6562 2.6864 16.284 2.0979 23.82-0.82812 3.5666-1.8872 4.5114-4.2294 5.7422-7.9219h7c-0.67629 5.7485-3.2316 9.5606-7.6875 13.188-8.5734 4.6911-17.518 6.7139-27.16 4.0156-3.4321-1.3142-6.3822-2.5969-9.2812-4.8789-0.61746-0.43699-1.2349-0.87398-1.8711-1.3242-2.8388 0.7279-4.9039 1.9393-7.375 3.5-7.4006 4.2289-16.186 4.9111-24.41 2.7773-7.0373-2.6217-12.956-6.2165-16.215-13.277v-4h7c0.39188 0.92812 0.78375 1.8562 1.1875 2.8125 1.9873 3.4949 3.2016 4.554 6.8125 6.1875 9.1202 2.1759 16.865 1.8012 25.137-2.7109 2.0009-1.1633 2.0009-1.1633 2.8633-3.2891 0.24175-3.3483 0.18521-6.7064 0.1875-10.062 0.018369-1.3758 0.018369-1.3758 0.037109-2.7793 0.011257-5.2944-0.42867-10.061-1.7937-15.183-0.43091-1.9749-0.43091-1.9749-0.43091-5.9749l-2.4375-0.5c-6.2118-2.6155-11.97-7.7498-15.562-13.5-0.66145-3.0813-0.58012-5.906 0-9 5.4942-7.8251 14.2-7.3206 22.875-7.25z" fill="#3F3E56"/>
    <path transform="translate(484.98 105.05)" d="m0 0c1.6445 1.3281 1.6445 1.3281 4.0195 3.9531v2c-1.1466 0.02127-1.1466 0.02127-2.3164 0.042969-30.817 1.3721-58.146 22.585-78.684 43.957-5.2835-1.5581-10.546-3.1654-15.785-4.8672-26.48-8.5265-55.18-15.465-83.215-14.133l-2-9c30.735 0.70817 61.329 6.07 90.044 17.273 3.4952 1.3481 6.2162 2.1326 9.9563 1.7271 1.9976-1.3755 1.9976-1.3755 3.7148-3.3672 0.67853-0.71599 1.3571-1.432 2.0562-2.1697 0.71495-0.77158 1.4299-1.5432 2.1665-2.3381 13.206-13.668 49.336-44.024 70.043-33.078z" fill="#D0E085"/>
    <path transform="translate(218,265)" d="m0 0c3.0221 1.7445 5.4165 3.833 7 7 0.35032 5.3424 0.45611 8.6479-3 13-4.0025 2.6684-7.2931 2.834-12 2-2.7557-2.1816-4.4359-3.8718-6-7-0.35032-5.3424-0.45611-8.6479 3-13 3.6888-2.4592 6.7184-2.8159 11-2z" fill="#FBFAFB"/>
    <path transform="translate(391,265)" d="m0 0c2.8412 1.2353 4.421 2.2555 6.3125 4.6875 1.0333 3.4756 1.2613 6.7533 0.6875 10.312-3 5.5-3 5.5-6 7-3.0594 0.42074-5.946 0.47999-9 0-4.3274-3.3357-5.7135-5.8716-6.4375-11.25 0.51084-4.3786 1.6022-6.2827 4.5898-9.4258 3.4028-2.4388 5.7633-1.9725 9.8477-1.3242z" fill="#FBFBFB"/>
    <path transform="translate(405.56 286.44)" d="m0 0c3.3722 0.77821 4.4948 1.6844 6.4375 4.5625 0.63595 3.5119 0.63017 6.7397-1 10-3.2586 1.6293-6.439 1.5267-10 1-2-1.0625-2-1.0625-3-3-0.5-3.375-0.5-3.375 0-7 2.312-3.1047 3.7428-4.724 7.5625-5.5625z" fill="#757585"/>
    <path transform="translate(197.56 287.06)" d="m0 0c3.4375 0.9375 3.4375 0.9375 5.375 2 1.7529 3.1965 1.5803 6.3868 1.0625 9.9375-1 2-1 2-3 3-2.7609 0.4544-5.2436 0.50534-8 0-2.9178-2.2795-2.9782-3.8256-3.4375-7.5 0.4375-3.5 0.4375-3.5 2-6 2.4375-1.5 2.4375-1.5 6-1.4375z" fill="#757585"/>
    <path transform="translate(313,305)" d="m0 0-1 3c-3.8459 1.282-7.4932 1.1842-11.5 1.1875-1.1582 0.018369-1.1582 0.018369-2.3398 0.037109-3.9084 0.010161-5.8366-0.0088889-9.1602-2.2246l1-3c7.6199-3.7123 15.709-2.804 23 1z" fill="#F2F1F3"/>
    <path transform="translate(520,330)" d="m0 0h1l1 18c-4.455-0.99-4.455-0.99-9-2l2-1c0.8412-2.1754 0.8412-2.1754 1.5-4.75 0.99198-3.5147 2.0451-6.8926 3.5-10.25z" fill="#D8D8E7"/>
    <path transform="translate(311,298)" d="m0 0 1 2c-3.955 2.6154-8.1683 2.4426-12.75 2.625-1.1892 0.058008-1.1892 0.058008-2.4023 0.11719-1.9489 0.09392-3.8982 0.17694-5.8477 0.25781l2-1v-2c-0.99-0.33-1.98-0.66-3-1 6.9678-1.3272 13.93-1.0883 21-1z" fill="#383751"/>
    <path transform="translate(81,330)" d="m0 0c3.1527 4.729 5.5267 9.2065 5 15l-1.875 0.375c-2.3162 0.49697-2.3162 0.49697-4.125 2.625-0.097061-6.1149 0.22959-11.933 1-18z" fill="#D2D1E1"/>
    <path transform="translate(101,410)" d="m0 0c4.2024 3.7175 6.9978 8.3166 10 13h-3c-1.8242-2.3359-1.8242-2.3359-3.6875-5.375-0.62262-0.99773-1.2452-1.9955-1.8867-3.0234-1.4258-2.6016-1.4258-2.6016-1.4258-4.6016z" fill="#F0EFF2"/>
    <path transform="translate(81,330)" d="m0 0c1.9542 2.9313 2.647 4.5583 3 8l-2 2c-1-1-1-1-1.0977-3.0664 0.011602-0.82371 0.023203-1.6474 0.035156-2.4961 0.0090234-0.82629 0.018047-1.6526 0.027344-2.5039 0.011602-0.63809 0.023203-1.2762 0.035156-1.9336z" fill="#DADAEA"/>
</svg>
